<svg xmlns="http://www.w3.org/2000/svg" viewBox="0 0 77 75">
  <path fill="#ffffff" d="M76 75H1V42h1V26h1V16h1v-3h1s1-5 3-7V2l1-1h1l2 1v4l3 7h1v4h1-1v6l1 1-1 2h2v1h-1v1h1l-1 1v9h1v1h-1v3h2-1v2h1-1v10h2l-1-1v-3l2-2h1v-1l1 1s4-2 3-5l1-3-1-1v1h-1l1-2 1 1v-3h-1v-1l2-1v-2s-1 0 0 0v-1h1l-1-2 1-1-1-1v-1h1l-1-1 1-1 1 1v7h2l-1-1 1-1v1h1l2-3 1-2v-2h1v-4h1v-3h-1v-1h1v-2h1v2h1s1 0 0 0l-1 1v3h1v2h1v2h1v2l1 2 2 3 1-1 1 1-1 1h1v-1l1-1-1-1 1-1h-1v-2h1v-2h1v8s1 0 0 0v2l2 1v1h-1v2h1v1-1l1 1v1h-1v3s0 3 3 5h2l3 2v-6s-1 0 0 0v-2h-1 2v-3h-1v-1h1V27h-1v-1h2v-9h-1v-1h2v-3l4-7V2l1-1h1l1 1v4l4 7v3h2v1h-1v9h2v1h-1v11h1-1v4h1v2s1 0 0 0" class="cls-3"/>
</svg>
