<svg xmlns="http://www.w3.org/2000/svg" viewBox="0 0 420 460">
  <path fill="#ffffff" stroke="#ffffff" stroke-miterlimit="10" stroke-width="1.9" d="m418 460-7-16c8 2 9-6 9-6 3-6-3-8-3-8 0-4-11-8-11-8 0-9-10-9-10-9-1-6-11-2-11-2-12 2-13 11-13 11 0-4-6-6-6-6-1-6-10-9-10-9-5-7-12-3-12-3l-10-3V217l-6-13c6-10 0-25 0-25-11-27-66-26-66-26h-19v248l-4-3c-25-14-58-11-58-11V147l-10-64-54-83h-5v12c-5 15-12 24-12 24V10l-5-7c-6 1-21 10-21 10-30 25-26 43-26 43v24c-4 5-6 10-7 16l-4 271c-14-12-24 5-24 5 4-3 8 0 8 0-4 2-6 10-6 10 8-7 9-2 9-2-1 6 6 6 6 6 4-6 7 4 8 7l-9-4c-20-10-19 8-19 8 14-6 10 4 10 4-18 10-16 17-16 17h11l-8 7h8c-15 8-15 23-15 23v12zM317 178l2 2s3 3 3 7v14l-5-4zm-18-13s13 5 14 10v20l-7-3v-12l-7-7zm-10-4 2 1h2l1 1v6l-3-3-1-1-7-5 6 1zM67 36s6-11 23-20v35s-9-1-23 9z"/>
</svg>
