<svg xmlns="http://www.w3.org/2000/svg" viewBox="0 0 24 24">
  <path d="m6.6 24-.1-.3c0-.2.1-.4 1.4-2.3l1.4-2H4.8c-4.4 0-4.5 0-4.6-.2-.2-.2-.2-.5 0-.6h2.2v-6h-1c-1 0-1 0-1.2-.2l-.1-.3V12l5.8-6L12 .2A317.2 317.2 0 0 1 24 12c0 .2 0 .4-.2.5h-2.2v6h2.2l.2.6-.2.2h-9l1.4 2.1 1.4 2.2c0 .1 0 .4-.2.4a89.2 89.2 0 0 1-10.8 0Zm9.7-1L15 21l-1.2-1.7h-3.6L9 21.1l-1.3 2-.1.2h8.9Zm-5.9-7.5v-3H8.3l-.1-.1L8 12l3.1-3.3 3.1-3-1-1.2-1.2-1-4.4 4.3-4.4 4.4v6.2h7.2Zm-6.2.5-.2-.1v-2.7l.2-.1.1-.2h5.1c.2.1.2.3.2 1.6s0 1.5-.2 1.6H4.3Zm2.2-1.5v-.8H4.8v1.6h1.6zm2.4 0v-.8H7.2v1.6h1.6zm4.8 1.6c0-2.6 0-2.7.2-2.7h4.4l.2.2v4.9h2.4v-6h-9.6v6h2.4zm4 .2v-2.2h-3.2v4.4h3.2zM7.2 7.2a237.2 237.2 0 0 1 5-4.6l1.3 1.3 1.3 1.3.3-.4.3-.3-1.7-1.7L12 1.1 6.7 6.4l-5.3 5.3h1.3zm6 2c2.6-2.6 2.6-2.6 2.8-2.6.2 0 .2 0 2.8 2.5l2.6 2.6h1.2l-3.3-3.3L16 5.1l-3.3 3.3-3.3 3.3h1.3zm5 .4-2.2-2-2 2-2.2 2.1h8.4zM4.7 23v-.4h.8v.8h-.8Zm13.6 0v-.4h.8v.8h-.8ZM1.6 21.3v-.4H.8v-.8h.8v.8h.8v.8h-.8Zm20 0v-.4h.8v-.8h.8v.8h-.8v.8h-.8ZM4 20.5v-.4h.8v.8H4Zm2.4 0v-.4h.8v.8h-.8Zm10.4 0v-.4h.8v.8h-.8zm2.4 0v-.4h.8v.8h-.8z"/>
</svg>
