<svg xmlns="http://www.w3.org/2000/svg" viewBox="0 0 24 24">
  <path d="M3 22.3V21h-.8v-2.2h1.6v-2h-.9c-.2-.2-.5-.4-.5-.6h-.9v6H.7v-6H0v-2.3h1.1l1.1-.1c0-.4.5-.9.8-1h5.2c.4.1.8.6.8 1h2.3v2.3h-.8v6h-.7v-6h-.5l-.4.1c0 .2-.3.4-.5.5l-.6.2h-.3v1.9H9V21h-.7v2.6h-.8V21H3.8v2.6H3v-1.3zM8.3 20v-.4H3v.8H8.3Zm-1.6-2v-1H4.5v1.9h2.3ZM8.2 16l.2-.1v-2.2H8v-.2H3.1v.1l-.2.1v2.1l.1.2.1.1H8Zm-5.8-1v-.4H.6v.8h1.6Zm8.2 0v-.4H9v.8h1.5zm5.3 7.3V21H15v-2.2h1.5v-2H15.6l-.5-.6h-.8v6h-.8v-6h-.7v-2.3h1l1.2-.1c0-.4.4-.9.8-1H21c.3.1.7.6.7 1H24v2.3h-.7v6h-.8v-6h-.4l-.5.1c0 .2-.3.4-.5.5l-.5.2h-.3v1.9h1.5V21H21v2.6h-.7V21h-3.8v2.6h-.7v-1.3zM21 20v-.4h-5.2v.8H21Zm-1.5-2v-1h-2.2v1.9h2.2Zm1.4-1.9.1-.1v-2.2h-.1l-.1-.2H16l-.1.1-.2.1v2.1l.2.2v.1h4.9ZM15 15v-.4h-1.5v.8H15Zm8.3 0v-.4h-1.6v.8h1.6zm-21-9V.4h19.5v11.2H2.1ZM21 10.5v-.4H3v.8h18zm-5.3-1.9V8h3.8v1.5H21V1.2H3v8.2h12.7Zm3 .4v-.4h-2.2v.8h2.2z"/>
</svg>
