<?xml version="1.0" encoding="UTF-8" standalone="no"?>
<svg
   viewBox="0 0 24 24"
   version="1.1"
   id="svg5886"
   sodipodi:docname="empresa.svg"
   inkscape:version="1.1.2 (76b9e6a115, 2022-02-25)"
   xmlns:inkscape="http://www.inkscape.org/namespaces/inkscape"
   xmlns:sodipodi="http://sodipodi.sourceforge.net/DTD/sodipodi-0.dtd"
   xmlns="http://www.w3.org/2000/svg"
   xmlns:svg="http://www.w3.org/2000/svg">
  <defs
     id="defs5890" />
  <sodipodi:namedview
     id="namedview5888"
     pagecolor="#ffffff"
     bordercolor="#666666"
     borderopacity="1.0"
     inkscape:pageshadow="2"
     inkscape:pageopacity="0.0"
     inkscape:pagecheckerboard="0"
     showgrid="false"
     inkscape:zoom="32.583333"
     inkscape:cx="11.984655"
     inkscape:cy="12.936061"
     inkscape:window-width="1920"
     inkscape:window-height="1016"
     inkscape:window-x="0"
     inkscape:window-y="0"
     inkscape:window-maximized="1"
     inkscape:current-layer="svg5886" />
  <g
     id="g5960">
    <ellipse
       cx="3.9000001"
       cy="17.6"
       fill="none"
       stroke="#000000"
       stroke-width="0.6"
       rx="1.5"
       ry="1.9"
       id="ellipse5864" />
    <ellipse
       cx="12"
       cy="17.700001"
       fill="none"
       stroke="#000000"
       stroke-width="0.6"
       rx="1.5"
       ry="1.9"
       id="ellipse5866" />
    <ellipse
       cx="20"
       cy="17.6"
       fill="none"
       stroke="#000000"
       stroke-width="0.6"
       rx="1.5"
       ry="1.9"
       id="ellipse5868" />
    <path
       fill="none"
       stroke="#000"
       stroke-width=".7"
       d="M5.6 20.3c-.5 0-.4.1-1 .3a3 3 0 0 0-.8.4 3 3 0 0 0-.8-.4c-.6-.2-.5-.3-1-.3-.7 0-.8.8-.8.8L1 23.4h5.6L6.5 21s-.2-.7-.8-.7zm16.2 0c-.5 0-.4.2-1 .3a3 3 0 0 0-.8.4 3 3 0 0 0-.9-.4c-.5-.1-.4-.3-1-.3s-.7.8-.7.8l-.2 2.4h5.6l-.2-2.4s0-.8-.7-.8h-.1zm-8.1-.1c-.5 0-.4.2-.9.3a3 3 0 0 0-.9.5 3 3 0 0 0-.8-.5c-.6-.1-.4-.2-1-.2s-.8.7-.8.7l-.1 2.4h5.5l-.1-2.4s-.1-.8-.8-.8z"
       id="path5870" />
    <path
       fill="none"
       stroke="#000"
       stroke-linejoin="round"
       stroke-width=".7"
       d="M4 15.6v-.9h16v1"
       id="path5872" />
    <path
       fill="none"
       stroke="#000"
       stroke-width=".7"
       d="M12 15.9v-3.8"
       id="path5874" />
    <path
       fill="none"
       stroke="#000"
       stroke-linecap="round"
       stroke-width=".7"
       d="m10.4 13.3 1.6-1.4 1.5 1.4"
       id="path5876" />
    <path
       fill="none"
       stroke="#000"
       stroke-linejoin="round"
       stroke-width=".7"
       d="M8.2 1.8H16v8.8H8.2Z"
       id="path5878" />
    <path
       fill="none"
       stroke="#000"
       stroke-linecap="square"
       stroke-width=".5"
       d="M9.2 3.3h1.1v0M9 5.2h1.2v0M9.1 7h1.2v0m1.3-3.7h1.1v0m-1.2 1.8h1.1v0M11.5 7h1.2v0M14 3.4h1v0m-1.2 1.8H15v0M13.9 7H15v0"
       id="path5880" />
    <path
       fill="none"
       stroke="#000"
       stroke-linejoin="round"
       stroke-width=".6"
       d="M9.4 1.8V.6h5.4v1.2"
       id="path5882" />
    <path
       fill="none"
       stroke="#000"
       stroke-linejoin="round"
       stroke-width=".5"
       d="M10.7 10.5V8.8H13v1.9"
       id="path5884" />
  </g>
</svg>
