<svg xmlns="http://www.w3.org/2000/svg" viewBox="0 0 24 24">
  <path d="M.3 23.6c-.3-.2-.3.2-.3-6.6v-6.4c.2-.1 5.3-4.2 5.6-4.2.2-.1.4 0 .6.3v4l2.1-2.1a79 79 0 0 1 2.3-2.2l.6.1.1.1v4l1.5-1.2L14.2 8V4.5c0-4.1 0-4 .3-4 .2-.2.4-.2 2.9-.2H20l.2.2.1.2v9.5H22l1.7.1c.3.2.3-.2.3 6.6 0 7 0 6.5-.3 6.7H.3zm4-3.4v-2.6c.2-.3.2-.3 3-.3 2.9 0 2.8 0 3 .3v5h2.3v-5c.2-.3.2-.3 3-.3 3 0 2.9 0 3 .3l.1 2.6v2.4h4.2V11.3h-6.6C16 11 16 11 16 9.4V8a127 127 0 0 0-5 4.3h-.3a.7.7 0 0 1-.3-.2l-.1-2V8.2L8 10.3c-2.4 2.4-2.3 2.3-2.7 2.1-.2-.1-.2-.1-.2-2.3V8s-1 .6-2 1.5L1 11v11.5h3.2Zm5 .3v-2.1h-4v4.2h4Zm8.3 0v-2.1h-4v4.2h4Zm1.7-13.3v-3h-4V7l.5-.4.5-.4c.2-.1.5 0 .7.2l.1 1.9v1.8h2.2zm0-5v-.8h-4V3h4z"/>
</svg>
