<svg xmlns="http://www.w3.org/2000/svg" viewBox="0 0 24 24">
  <path d="M5.3 24c-.5-.2-1-.5-1.2-1l-.2-.4v-8.2l.2-.2c.2-.5.3-.6 1.8-1.3a4067.8 4067.8 0 0 0 2.7-1.5 4.4 4.4 0 0 1-3.2-3.1A3 3 0 0 1 5.3 7l.1-1.3.7-1.4A4.7 4.7 0 0 1 8 3a5 5 0 0 1 1.3-.3c.7-.1 1.6 0 2.3.3l1 .7c.1 0 .1.1.7-.3A10 10 0 0 1 14 3a32.7 32.7 0 0 1 2.5-1.6l.7-.5 1-.5.6.1a133.4 133.4 0 0 0 1.7.6v.5a11 11 0 0 0-.2 1l-.1.3c0 .3-.2.3-.8.3h-.4l-.3.5c-.3.5-.4.6-1 .6h-.4l-.1.2-.5.7H15.5l-.3.2a3 3 0 0 1-.5.3l-.4.3-.3.3v1.4a4.4 4.4 0 0 1-4.2 3.9h-.1l.7.4c3.7 1.8 3.6 1.7 3.9 2.3l.1.2v8.1c-.1.7-.7 1.3-1.4 1.4H5.3zm7.9-1.1.2-.3.1-.2v-7.8l-.1-.1c-.1-.2 0-.1-3-1.6l-1.2-.6-1.5.7-2.8 1.5v8.1c.2.2.3.4.5.4H13zm-7-1.8H6l-.2-.4.2-.4a95.1 95.1 0 0 1 6.5.2v.3l-.2.3H6.2zM6 19.2l-.2-.4s0-.3.2-.4H12.3l.2.3V19l-.2.2H6zM9 17.6l-.8-.3c-.4-.4-.6-1-.5-1.5.1-.5.4-1 1-1.1.2-.2.2-.2.6-.2l.6.1c1 .5 1.2 1.5.7 2.3-.2.4-.6.6-1 .7a3 3 0 0 1-.4 0H9zm.6-1c.4-.3.4-.9 0-1a.7.7 0 0 0-.7 0c-.2 0-.3.3-.3.5s.1.4.3.5l.4.1h.3zm1.1-6.2c.4 0 1-.4 1.3-.6.6-.6 1-1.3 1.2-2.1.3-1.9-.7-3.5-2.5-4l-1-.1h-1c-1.1.5-2 1.3-2.3 2.5l-.1 1V8c.4 1 1.1 1.9 2.2 2.3l.3.1V9.3h-.1a2 2 0 0 1-1.1-1A2 2 0 0 1 7.8 6a2 2 0 0 1 2.6 0c.6.5.8 1.3.5 2-.2.6-.5 1-1 1.2h-.3v1.4h.4l.6-.2zM8.7 7.7c0-.5 0-.5.2-.7h.6l.1.2v.5c0 .6 0 .6.2.4.2-.2.3-.5.3-.7 0-.4-.3-.9-.7-1-.4 0-.7 0-1 .3a1 1 0 0 0-.3.7c0 .3.1.5.3.7l.3.2v-.6zM14 5a66 66 0 0 1 1.2-.7l.2-.1h1l.2-.2.2-.4c.2-.3.3-.4.8-.4h.5v-.1a20.8 20.8 0 0 0 .6-.9h.9v-.3l.1-.3-.2-.2-1-.1-.3.1A33.7 33.7 0 0 1 15.7 3a121.4 121.4 0 0 0-2.3 1.5h-.1v.2l.2.3.2.3.2-.2z"/>
</svg>
