<svg xmlns="http://www.w3.org/2000/svg" viewBox="0 0 24 24">
  <path fill="#333" d="M5 23.9c-.7-.2-1.1-.6-1.2-1.2l-.1-.7v-.6h.5l.2.6v.6l.5.5 7 .1H19c.2 0 .5-.4.6-.6l.3-2 .2-1.9-1.3-2-1.2-2.1H6.5l-1.3 2L4 18.7v.7c.2 1 .2 1 0 1.2h-.4l-.2-.5v-.3s-.4.4-.6.9C2 21.8 2 22 1.4 22c-.7 0-1.2-.8-.9-1.4l1.3-2.2 1.2-2-.1-.9-.1-.9h-.3c-.5 0-.8-.3-1-.7v-1c0-.8 0-.8.2-1l.3-.3c.2-.2.2-.2 1-.2H4l-1.6-3L.6 5.1V3.4c.3-1.1 1.2-2 2.3-2.3h1.5l.7.2.9.6.8 1.2.4.9c0 .2-.3.4-.5.3l-.5-.8c-.3-.6-.4-.8-.7-1-.8-.9-2-1-3-.5-.3.2-.9.7-1 1-.4 1-.4 1.7.1 2.7l.2.3h.3c.4-.3 1-.5 1.5-.5l.7.1c.3.2.4.3.4.6v.6c-.3.4-.7.8-1.6 1.4H3l.2.4.2.5.5-.2c.6-.3 1-.3 1.5-.3.6 0 1 .2 1 .7l-.1.5A4 4 0 0 1 5 11.1l-.4.2h.9c.9.1.9.1.9-.2 0-.4.4-1.2.8-1.7l-.5-.6c-.6-.5-.7-.6-.8-.9-.2-.6 0-1.4.7-1.7h1v-.3c-.2-.7-.2-1.2.1-1.7.2-.3.5-.5.9-.7H10c.6.4 1 1 1 1.5v.3s.2 0 .3-.2c.4-.2.4-.3.4-1l-.1-.5-.1-.2V1l.1-.2c.2-.4.4-.5.7-.6.3-.2 2-.1 2.2 0 .2.1.5.3.6.6l.1 1.4v1.2l-.1.1-.1.7c0 .7 0 .7.4 1 .5.3 1 .7 1.1 1l.2.1h.7l1 .1c.4.2.4.4.4 1.3v.7l.7.8.6.8v1.4h.8l1 .1c.2.1.5.4.5.6v1.7c0 .3-.4.6-.6.7h-.5c-.2 0-.1 0-.3 1.1v.8l1.2 2.1 1.3 2.2v.3c0 .3-.1.6-.4.8-.4.3-1 .2-1.3-.1l-.7-1-.5-1a34.8 34.8 0 0 0-.5 3.3l-.8.8H5ZM1.6 21l2.4-4c2.5-4 2.4-4 2.1-4.1-.2-.2-.2-.3-2.7 4l-2.4 4 .3.3c.2 0 .2 0 .3-.2zm21.1 0 .1-.1c0-.2-4.6-7.9-4.8-8-.1-.1-.4 0-.4.2s4.6 7.9 4.7 8h.4zM4 14.8l.1-.1h-.6v.7c.1.1.1.1.3-.2l.2-.4zm16.5 0v-.1H20l.2.4.3.4v-.7zM5 13.2l.7-.8a1 1 0 0 1 1.1.1c.4.3.5.8.3 1.2l-.1.1a407.7 407.7 0 0 0 10.2-.1l-.1-.5c0-.8 1-1.3 1.6-.7l.6.8.3.6h2.1l.2-.2v-1.5h-.1l-9.5-.1H2.5c-.3 0-.3.1-.3.9 0 .7 0 .8.2.8h2.1zm6.6-2c0-.3-.3-1-.7-1.3-.5-.5-1-.6-1.7-.6l-.8.2c-.6.3-1.1 1-1.2 1.6v.3h4.4Zm1.2-.5V10l.6-.8.7-.8v-.7c0-.9 0-1 .3-1.2.2-.1.3-.2.9-.2h.6l-.2-.2-.4-.3c-.4-.2-.6-.5-.7-.7l-.1-.8v-.6h-1.9v.5c0 .8-.1 1.1-.8 1.6l-.5.3h.3c.4 0 .6.2.9.4.3.3.3.5.3 1s0 .7-.9 1.3l-.6.5.3.3c.4.4.7 1.2.7 1.6v.2h.5zm6.8.2v-.4h-1l-1.2-.1v-.5l1-.1h.8l-.3-.5-.4-.5h-4l-.5.7-.5.8v1.1h6.1zm-14.8-.4 1-1c0-.2 0-.2-.4-.2-.3 0-.7 0-1.2.3l-.3.1.2.5c.3.5.3.5.7.3zM8 8.8s-.2-1.3-.4-1.6a.7.7 0 0 0-.6-.4l-.4.2-.2.4.1.4 1.4 1zm3.1-.4c.8-.6.8-.6.8-.9 0-.4-.2-.7-.6-.7-.4 0-.6.3-.8 1.4-.2.6-.2.7 0 .7l.6-.5zm-1.4.2a105 105 0 0 1 .6-3.4 1 1 0 0 0-.4-.8c-.2-.2-.5-.3-.8-.3-.5 0-.8.3-1 .7-.1.3-.1.4.6 3.6v.2h1zm8.4-1V7h-3.5v1.1h3.5zM3.1 7.4l1-1c0-.2 0-.2-.5-.2l-1.2.3-.2.2.2.4.3.5.4-.2ZM14.6 2v-1l-.2-.2-1-.1c-1.1 0-1.2 0-1.2 1.3V3H14.7zM9.4 22.2c-.2 0-.4-.3-.5-.5v-1c0-.8 0-.9.2-1.1 0-.1.3-.3.5-.3.4 0 .8.1 1 .5l.1.7c0 1 0 1.4-.4 1.6-.2.2-.7.2-1 .1zm.6-.8a4 4 0 0 0 0-1.4h-.2c-.3 0-.3 0-.3.7v.8h.5zm3.9.8c-.5-.2-.5-.4-.5-1.4 0-.8 0-1 .2-1.2a1 1 0 0 1 1.6.3v1.8a1 1 0 0 1-1.3.5zm.6-.7V20h-.3l-.1.7v.8h.4zm-7.4-3a1 1 0 0 1-.4-.5l-.1-1v-1l.7-.5c.3 0 .7.1.9.3.2.3.2.5.2 1.3l-.1 1a1 1 0 0 1-1.2.3zm.5-.8.1-.7v-.7h-.3l-.1.7v.8h.3zm4 .7a1 1 0 0 1-.5-.6v-1.6c.1-.3.4-.6.7-.6h.7c.4.3.4.5.4 1.4v1a1 1 0 0 1-1.3.4zm.6-.6v-1.5h-.3l-.1.7v.7c.1.1.3.1.4 0zm4 .6a1 1 0 0 1-.5-.4v-2l.7-.5c.3 0 .6.1.8.3.3.3.3.5.3 1.3 0 .7 0 .7-.2 1a1 1 0 0 1-1.1.3zm.5-.7.1-.7v-.7c-.2-.1-.3-.1-.4 0v1.5h.3z"/>
</svg>
