<svg xmlns="http://www.w3.org/2000/svg" viewBox="0 0 24 24">
  <path fill="#333" d="m5.3 23.7-.2-.1V15l.2-.3c.2-.4.5-.7 1.1-1a61.8 61.8 0 0 0-5.2-.1v-.5c0-.3.1-.3 1.1-.3h1v-.3A9.9 9.9 0 0 1 7.9 5a8.7 8.7 0 0 1 2.2-.8v-.3a2 2 0 0 1 4 0c0 .3 0 .3.3.3.9.2 2 .9 3 1.6a9.8 9.8 0 0 1 3.6 6.8c0 .3-.1.3 1 .3h.9l.1.2.2.2c0 .2-.1.4-.3.5h-3l.2.2.2.7a481 481 0 0 0-6 7.6c-1.2 1.5-1.1 1.5-1.4 1.4-.3 0-.4-.2-.4-.4s0-.2.3-.5a12.2 12.2 0 0 0 .6-.8 40.3 40.3 0 0 0 2.5-3.1 133.6 133.6 0 0 0 3.4-4.1c.3-.2-.8-.5-1.3-.3a176.5 176.5 0 0 1-7.3 5.7c-.5.3-1.2.4-1.8.2-.6-.2-1-.5-1.1-1l-.2-2.2v-2h-.1c-.2-.3-.5-.4-.7-.4l-.7.4v8.3l-.2.2c-.2.2-.4.2-.6 0zm4.8-4.3.4-.3a206.4 206.4 0 0 1 6.3-5.1l.2-.2h-.3a4 4 0 0 0-2.2.8 44 44 0 0 0-4.2 3.8c-.4.3-.6.4-.8.3-.2 0-.3-.2-.3-.4s0-.3.7-1a24.6 24.6 0 0 0 1.7-1.4 57.6 57.6 0 0 1 2.1-2l-.6.2a4 4 0 0 0-1.5 1A406.5 406.5 0 0 1 9 17.5l-.3.3V19c.1.5.9.7 1.5.4zM9 16a64.5 64.5 0 0 1 2.5-2.2 76.6 76.6 0 0 0-4.2 0c.5.2.8.5 1 1l.2 1v.6l.5-.4zm11-3.5c-.3-2.6-1.8-5.1-3.9-6.5a7.6 7.6 0 0 0-6.8-.7h-.2l-1 .6a8.6 8.6 0 0 0-4 6.7v.2H20zm-13.8-.9-.2-.1v-.3c.2-.8.6-2 1-2.5l1.2-1c.3-.2.5-.2.7-.1.3 0 .3.5.2.7l-.4.2a3.8 3.8 0 0 0-1.7 2.8c0 .2 0 .3-.2.4h-.6zM13.2 4l-.3-.4a1 1 0 0 0-.5-.3H12c-.3 0-.5.2-.6.4-.3.4-.4.3.8.3h1zm-8.6 2c-.3-.2-.3-.2-.3-1.9V2.5l.2-.1c.1-.2.3-.2.5-.1.3 0 .3.1.3 1.7v1.6c-.2.3-.5.4-.7.2zm14.1-.4-.2-.1V2.2L19 2l.4.2v3.1c-.1.2-.4.3-.6.2zm-11.3-2-.1-.1V.6l.4-.2c.2 0 .4.2.5.3v2.7l-.2.1c-.1.2-.4.2-.6 0Zm8.4-.4c-.2-.1-.2-.2-.2-1.3v-1l.1-.2h.6l.2.2v1c0 1 0 1.1-.2 1.3h-.5z"/>
</svg>
