<?xml version="1.0" encoding="UTF-8" standalone="no"?>
<svg
   id="Capa_1"
   data-name="Capa 1"
   viewBox="0 0 269.00009 159.51012"
   version="1.1"
   sodipodi:docname="camion0.svg"
   inkscape:version="1.1.2 (76b9e6a115, 2022-02-25)"
   width="269.00009"
   height="159.51012"
   xmlns:inkscape="http://www.inkscape.org/namespaces/inkscape"
   xmlns:sodipodi="http://sodipodi.sourceforge.net/DTD/sodipodi-0.dtd"
   xmlns="http://www.w3.org/2000/svg"
   xmlns:svg="http://www.w3.org/2000/svg"
   xmlns:rdf="http://www.w3.org/1999/02/22-rdf-syntax-ns#"
   xmlns:cc="http://creativecommons.org/ns#"
   xmlns:dc="http://purl.org/dc/elements/1.1/">
  <sodipodi:namedview
     id="namedview10"
     pagecolor="#5fffff"
     bordercolor="#666666"
     borderopacity="1.0"
     inkscape:pageshadow="2"
     inkscape:pageopacity="0"
     inkscape:pagecheckerboard="0"
     showgrid="false"
     inkscape:zoom="2.4501817"
     inkscape:cx="201.0055"
     inkscape:cy="142.23435"
     inkscape:window-width="1920"
     inkscape:window-height="1016"
     inkscape:window-x="0"
     inkscape:window-y="0"
     inkscape:window-maximized="1"
     inkscape:current-layer="Capa_1"
     fit-margin-top="0"
     fit-margin-left="0"
     fit-margin-right="0"
     fit-margin-bottom="0"
     scale-x="1"
     viewbox-width="268.10011" />
  <defs
     id="defs4">
    <style
       id="style2">.cls-1{fill:#fff;}</style>
  </defs>
  <title
     id="title6">camionblanco</title>
  <path
     id="Camión2"
     class="cls-1"
     d="m 268.76,88.653077 a 8.06,8.06 0 0 0 -0.46,-3.07 c -5.88,-13.72 -11.62,-27.5 -17.81,-41.07 a 18.44,18.44 0 0 0 -16.31,-11.15 c -7.32,-0.46 -14.68,0 -22,-0.27 -9.32,-0.3 -14.74,5.78 -14.57,14.51 0.39,19.32 0.27,38.64 0.35,58.000003 v 3.23 l -42.42,0.19 v -9 l 2.75,-0.570003 c 12.18,-2.51 21.1,-9.36 26.66,-20.42 5.08,-10.1 4.84,-21 3.05,-31.59 -3.07,-18.380004 -18.73,-30.830004 -37.84,-30.870004 -12.76,0 -25.53,0.1 -38.29,0.15 -1,0 -2,-0.08 -3.14,-0.12 -0.1,-4.28 0.11,-8.3400001 -2.65,-11.7500001 A 13.17,13.17 0 0 0 95.479999,0.01307291 c -4.09,-0.09 -8,0.22 -11.36,2.99999999 -4.31,3.61 -4.55,8.5700001 -4.46,13.8700001 h -3 c -12.77,0.06 -25.53,0 -38.3,0.2 -14.6,0.21 -26.049999,6.4 -33.269999,19.180004 -2.5,4.41 -3.45,9.64 -5.09,14.48 l 0.08,18.34 c 1.22,4 2.15,8.1 4.06,11.71 6.09,11.54 16,17.88 29.049999,19.780003 v 9.15 h -2.81 l -12.359999,0.07 v 0 q -6.27,0 -12.55,0 H 5.2 c -2.1,0 -3.78,0.47 -4.93,2 v 3.41 c 2.66,3.81 7,1.78 10.56,2.73 -10.89,13.69 -6.11,29.83 4.55,37.14 10.329999,7.07 25.709999,6.34 35.219999,-6.93 0.46,0.55 0.91,1.05 1.33,1.58 a 24.6,24.6 0 0 0 26.25,8.65 c 9.12,-2.65 14.88,-8.7 17.56,-17.79 0.25,-0.84 1.000001,-2.17 1.580001,-2.19 5.47,-0.19 10.94,-0.15 16.32,-0.17 2.57,10 5.92,12.57 16,12.52 6.56,0 13.12,-0.23 19.67,0 7.89,0.24 13.93,-4 14.62,-12.1 0,-0.15 0.19,-0.28 0.42,-0.62 h 2.49 c 9.62,0 19.24,0 28.85,-0.19 2.22,0 2.91,0.74 3.49,2.73 2.68,9.11 8.69,15 17.91,17.31 8.9,2.22 16.74,-0.07 23.39,-6.38 3.93,-3.72 6.12,-8.4 7.24,-13.83 4.12,0 8.13,0 12.14,-0.06 6,-0.09 9.16,-3.34 9.14,-9.37 q -0.16,-19.78 -0.24,-39.580003 z M 89.339999,9.0330729 c 1.72,-1.53 7.180001,-1.62 9.270001,-0.32 2.09,1.3000001 2.53,3.4500001 1.83,8.0000001 l -12.750001,0.05 c -0.07,-2.76 -0.78,-5.57 1.65,-7.7300001 z M 8.68,68.633077 a 57.87,57.87 0 0 1 0.16,-20.27 c 2.49,-13.56 13.789999,-22.470004 27.939999,-23.300004 3,-0.17 5.93,-0.05 9.35,-0.07 0,2.77 0,5.440004 0,8.100004 0.05,2.09 0.83,3.79 3.07,4.31 2.53,0.59 4.64,-1.08 4.74,-3.85 0.1,-2.77 0,-5.550004 0,-8.470004 l 80.520001,-0.36 c 0,2.84 -0.08,5.530004 0.06,8.210004 0.16,3 2,4.55 4.55,4.11 2.55,-0.44 3.22,-2.2 3.27,-4.38 0.06,-2.61 0,-5.210004 0,-7.760004 20.3,-2.9 34.39,7.270004 37.64,23.000004 1.89,9.18 2.23,18.7 -2.09,27.51 -4.9,9.95 -13.05,15.71 -24.26,16.7 -3.53,0.32 -7.12,0.08 -11,0.1 v -3.23 q -0.08,-18.36 -0.16,-36.72 c 0,-4.23 -1.33,-6.14 -4.09,-6 -2.76,0.14 -3.83,1.9 -3.81,6 q 0.06,18.36 0.15,36.72 v 3.29 l -80.470001,0.35 v -2.9 q -0.09,-18.49 -0.17,-37 a 22.92,22.92 0 0 0 -0.07,-2.62 3.85,3.85 0 0 0 -7.59,-0.44 13.08,13.08 0 0 0 -0.2,2.87 q 0.06,18.48 0.16,37 v 2.83 c -19.07,3.16 -34.599999,-6.43 -37.699999,-23.73 z m 20.889999,83.130003 a 17.32,17.32 0 0 1 -17.109999,-17 17.06,17.06 0 1 1 17.109999,17 z m 21,-30.7 -2.57,-3.24 h 5.12 z m 21.27,30.51 a 17.35,17.35 0 0 1 -17.29,-17.1 17.17,17.17 0 0 1 17,-17 17.06,17.06 0 0 1 0.29,34.1 z m -29.9,-42.12 v -8.49 l 105.420001,-0.47 v 8.49 z m 114.000001,28.66 c -0.27,2.93 -1.75,4.61 -4.66,4.67 q -12.33,0.24 -24.66,0.12 c -3,0 -4.56,-1.71 -4.82,-4.78 a 21.3,21.3 0 0 1 0,-3.66 c 0.28,-3.08 1.81,-4.56 4.92,-4.63 4.11,-0.09 8.22,-0.05 12.32,-0.07 3.94,0 7.87,-0.09 11.81,0 3.25,0 4.81,1.52 5.09,4.73 a 20.34,20.34 0 0 1 0.03,3.62 z m 47.19,-19.36 a 68.66,68.66 0 0 0 -3.78,7.14 c -1.62,4.07 -1.48,4.13 -6,4.15 -9.18,0 -18.36,0 -27.54,0.15 a 3.44,3.44 0 0 1 -3.66,-2.05 11.16,11.16 0 0 0 -10.21,-6.26 q -13.11,-0.09 -26.22,0.11 c -4.79,0.08 -8.15,2.61 -10.55,6.68 a 3.62,3.62 0 0 1 -2.45,1.65 c -4.89,0.17 -9.79,0.17 -14.69,0.08 a 2.85,2.85 0 0 1 -2.100001,-1.27 c -1.78,-3.82 -3.38,-7.72 -5.09,-11.7 l 113.430001,-0.5 c -0.43,0.74 -0.8,1.26 -1.11,1.82 z m 45.11,-59.750003 c 2.87,6.35 5.58,12.77 8.32,19.18 a 4.14,4.14 0 0 1 0,1.07 h -5.48 c -6.19,0 -12.39,0.09 -18.59,0.07 -6.7,0 -10,-3.28 -10,-9.92 0,-3.74 0,-7.49 0,-11.61 h 6.36 c 5.68,0 11.35,-0.1 17,0 a 3.19,3.19 0 0 1 2.39,1.21 z m -25.07,91.910003 a 17.19,17.19 0 0 1 -17.2,-17.12 17.050073,17.050073 0 0 1 34.1,-0.1 17.34,17.34 0 0 1 -16.9,17.22 z m 37.78,-61.000003 c -0.14,3.31 0,6.63 0,10.290003 -4,0.18 -8.28,-0.470003 -11,3.43 -2.11,3 -1.63,6.37 -1.43,9.63 0.3,5.1 3.26,6.86 12.55,7.69 v 4.07 4.43 l -12.5,0.05 c -2.45,-4.31 -4.22,-8.67 -7.06,-12.16 -5,-6.12 -11.88,-8.61 -19.74,-8.5 -5.22,0.07 -10.45,0 -16,0.08 v -3.11 q -0.14,-29.110003 -0.26,-58.220003 c 0,-5.2 1.32,-6.57 6.44,-6.6 6.38,0 12.76,-0.11 19.14,-0.08 6.38,0.03 11.12,3.18 12.91,8.89 l -21.7,0.09 c -7.46,0 -7.84,0.42 -7.8,7.87 0,3.76 0,7.52 0,11.28 0.07,11.48 6.8,18.17 18.33,18.17 8.39,0 16.78,0 25.17,-0.15 2.29,0.01 3.04,0.71 2.95,2.89 z m -0.11,18.450003 v 4.4 h -4.49 v -4.4 z" />
  <metadata
     id="metadata12">
    <rdf:RDF>
      <cc:Work
         rdf:about="">
        <dc:title>camionblanco</dc:title>
      </cc:Work>
    </rdf:RDF>
  </metadata>
  <path
     style="fill:#1a1a1a;stroke:none;stroke-width:3.26506"
     d="m 24.94394,150.84668 c -4.55531,-1.44444 -8.26244,-4.56568 -10.36154,-8.72396 -4.25617,-8.43142 -0.92698,-18.20674 7.643203,-22.44235 2.973699,-1.46969 3.238652,-1.52427 7.399281,-1.52427 4.028297,0 4.491211,0.0867 6.963751,1.30391 7.717372,3.79925 11.443652,12.20942 8.965083,20.2341 -1.555845,5.03724 -6.16118,9.63231 -11.133844,11.10903 -2.485481,0.73811 -7.216915,0.75985 -9.475934,0.0435 z"
     id="path1249" />
  <path
     style="fill:#1a1a1a;stroke:none;stroke-width:3.26506"
     d="m 67.636541,150.77307 c -4.902619,-1.31839 -9.03674,-4.76606 -11.339206,-9.45637 -1.051354,-2.1417 -1.151553,-2.73645 -1.151553,-6.83528 0,-4.09882 0.100199,-4.69357 1.151553,-6.83527 2.530488,-5.15481 7.287842,-8.7693 12.820379,-9.74051 7.099309,-1.24624 14.997169,3.50173 17.68365,10.63092 3.558572,9.44348 -1.770007,19.69682 -11.595923,22.31307 -2.635102,0.70162 -4.754841,0.68018 -7.5689,-0.0766 z"
     id="path1288" />
  <path
     style="fill:#1a1a1a;stroke:none;stroke-width:3.26506"
     d="m 217.95535,149.88203 c -4.75326,-1.6974 -8.12954,-4.76048 -10.25878,-9.30713 -1.02426,-2.18713 -1.13345,-2.85369 -1.13345,-6.91942 0,-4.24673 0.074,-4.64948 1.31975,-7.17884 6.29224,-12.77611 24.31155,-12.57326 30.42949,0.34256 1.20235,2.53834 1.30954,3.09869 1.30954,6.84596 0,3.74103 -0.10839,4.31012 -1.2999,6.82534 -1.79834,3.79621 -4.47399,6.52962 -8.18877,8.36557 -2.65966,1.31447 -3.46695,1.51522 -6.56708,1.63304 -2.65042,0.10072 -4.054,-0.0511 -5.6108,-0.60708 z"
     id="path1327" />
  <path
     style="fill:#b3b3b3;stroke:none;stroke-width:3.26506"
     d="M 32.086267,92.029031 C 20.00392,89.560263 11.48641,81.135765 9.04765,69.241986 7.65908,62.469987 7.83168,53.070544 9.46296,46.624311 11.772,37.499876 18.80272,30.135182 28.257002,26.937533 c 3.789322,-1.28164 4.444838,-1.37506 10.835288,-1.54424 l 6.801957,-0.18007 0.136304,5.184274 c 0.134124,5.101343 0.154622,5.200013 1.281429,6.168304 1.630347,1.400997 4.268331,1.369108 5.619962,-0.06793 0.917434,-0.975412 0.999187,-1.416076 1.123341,-6.055241 l 0.133896,-5.003277 28.435414,-0.27049 c 15.639477,-0.14878 33.623797,-0.27065 39.965167,-0.27083 l 11.52976,-3.2e-4 v 3.2081 c 0,7.03115 0.9263,9.035893 4.17509,9.035893 3.48178,0 4.38965,-1.69793 4.39342,-8.216743 l 0.002,-3.93134 3.09499,-0.29003 c 7.13166,-0.66829 15.05564,1.04426 20.98486,4.53531 9.01716,5.309186 13.56848,14.488043 14.13837,28.51352 0.29843,7.3447 -0.56206,11.949219 -3.26584,17.475695 -4.07512,8.32946 -10.41109,13.633659 -18.86985,15.797049 -3.29721,0.84328 -12.25789,1.486882 -14.5956,1.048322 l -1.48693,-0.27895 -0.002,-20.490187 c -0.002,-21.096376 -0.12207,-22.859271 -1.65675,-24.393955 -1.15155,-1.151541 -3.7008,-1.055084 -5.15444,0.195029 l -1.14495,0.984795 -0.11231,22.074722 -0.11231,22.074718 H 94.520343 54.533582 V 83.53136 c 0,-4.789568 -0.122428,-14.568263 -0.272057,-21.730438 l -0.272062,-13.022134 -1.12501,-1.125011 c -1.559032,-1.559029 -3.575045,-1.533692 -5.364726,0.06742 l -1.332871,1.192435 0.01647,21.623497 0.01647,21.623498 -1.444937,0.239088 c -2.490137,0.412039 -9.898827,0.195263 -12.668596,-0.370682 z"
     id="path1366" />
  <path
     style="fill:#b3b3b3;stroke:none;stroke-width:3.26506"
     d="m 248.49395,128.8696 c -0.22598,-0.2806 -1.09752,-1.88197 -1.93676,-3.5586 -3.78647,-7.56472 -7.50346,-11.7149 -12.70405,-14.18465 -4.30924,-2.04645 -7.84803,-2.53062 -18.61719,-2.54713 l -9.28503,-0.0142 -0.10203,-25.406283 c -0.15341,-38.199701 -0.14717,-38.74804 0.45366,-39.827519 1.07621,-1.933594 2.36268,-2.108147 15.53714,-2.108147 11.47491,0 12.38672,0.05422 14.55523,0.865568 2.84708,1.065231 5.21709,3.148568 6.53062,5.740695 l 0.9955,1.96453 h -13.00623 c -8.14669,0 -13.47205,0.162389 -14.25298,0.434623 -2.1214,0.739523 -2.34442,1.922318 -2.34214,12.421566 0.001,6.072842 0.1822,10.154178 0.51231,11.559816 1.58897,6.766044 6.4249,11.447172 13.14164,12.720976 1.2059,0.228693 8.72047,0.411255 16.92806,0.411255 10.93545,0 14.88642,0.126892 15.24929,0.489759 0.33478,0.33478 0.48976,2.317449 0.48976,6.265568 v 5.77581 l -3.30259,0.254683 c -5.41123,0.41728 -7.98974,2.42448 -8.92943,6.95095 -0.60042,2.89219 0.0266,8.54818 1.10952,10.00908 1.16727,1.57463 3.56946,2.77826 6.60235,3.30813 1.47595,0.25786 3.18861,0.56268 3.80591,0.67737 l 1.12237,0.20855 v 4.0489 4.0489 h -6.07202 c -4.36639,0 -6.18744,-0.14331 -6.48291,-0.51016 z"
     id="path1479" />
  <path
     style="fill:#b3b3b3;stroke:none;stroke-width:3.26506"
     d="m 96.84903,129.68586 c -0.620475,-0.45577 -5.795068,-11.68543 -5.499644,-11.93507 0.06613,-0.0559 25.427124,-0.23246 56.357764,-0.39241 l 56.23753,-0.29082 -1.23698,2.01036 c -0.68034,1.10569 -2.07709,3.78383 -3.10388,5.95141 -1.02679,2.16758 -2.18931,4.11361 -2.58337,4.3245 -0.53505,0.28635 -27.3411,0.66276 -32.80619,0.46066 -0.40861,-0.0151 -1.33351,-0.98674 -2.14125,-2.24945 -1.44312,-2.25597 -2.92835,-3.59746 -5.50618,-4.97332 -1.32466,-0.70702 -2.5851,-0.76242 -17.34565,-0.76242 -19.75224,0 -18.36036,-0.39953 -24.74707,7.10342 l -1.07536,1.26331 h -7.9276 c -5.69957,0 -8.12279,-0.14338 -8.62212,-0.51017 z"
     id="path1518" />
  <path
     style="fill:#b3b3b3;stroke:none;stroke-width:3.26506"
     d="m 124.48263,142.23499 c -1.8892,-0.97971 -2.40304,-2.30033 -2.40304,-6.1761 0,-3.15936 0.0781,-3.47411 1.12061,-4.51638 1.45528,-1.45494 3.9683,-1.69453 17.85758,-1.70254 11.80862,-0.007 12.86796,0.17483 13.97792,2.39672 0.89633,1.79426 0.95248,6.1101 0.10278,7.9007 -1.13115,2.38374 -1.18416,2.39235 -15.89416,2.58219 -11.8438,0.15284 -13.64666,0.0937 -14.76169,-0.48459 z"
     id="path1557" />
</svg>
