<svg xmlns="http://www.w3.org/2000/svg" xmlns:svg="http://www.w3.org/2000/svg" data-name="Capa 1" viewBox="0 0 269 159.51">
  <path fill="#fff" d="M268.76 88.653a8.06 8.06 0 0 0-.46-3.07c-5.88-13.72-11.62-27.5-17.81-41.07a18.44 18.44 0 0 0-16.31-11.15c-7.32-.46-14.68 0-22-.27-9.32-.3-14.74 5.78-14.57 14.51.39 19.32.27 38.64.35 58v3.23l-42.42.19v-9l2.75-.57c12.18-2.51 21.1-9.36 26.66-20.42 5.08-10.1 4.84-21 3.05-31.59-3.07-18.38-18.73-30.83-37.84-30.87-12.76 0-25.53.1-38.29.15-1 0-2-.08-3.14-.12-.1-4.28.11-8.34-2.65-11.75a13.17 13.17 0 0 0-10.6-4.84c-4.09-.09-8 .22-11.36 3-4.31 3.61-4.55 8.57-4.46 13.87h-3c-12.77.06-25.53 0-38.3.2-14.6.21-26.05 6.4-33.27 19.18-2.5 4.41-3.45 9.64-5.09 14.48l.08 18.34c1.22 4 2.15 8.1 4.06 11.71 6.09 11.54 16 17.88 29.05 19.78v9.15h-2.81l-12.36.07H5.2c-2.1 0-3.78.47-4.93 2v3.41c2.66 3.81 7 1.78 10.56 2.73-10.89 13.69-6.11 29.83 4.55 37.14 10.33 7.07 25.71 6.34 35.22-6.93.46.55.91 1.05 1.33 1.58a24.6 24.6 0 0 0 26.25 8.65c9.12-2.65 14.88-8.7 17.56-17.79.25-.84 1-2.17 1.58-2.19 5.47-.19 10.94-.15 16.32-.17 2.57 10 5.92 12.57 16 12.52 6.56 0 13.12-.23 19.67 0 7.89.24 13.93-4 14.62-12.1 0-.15.19-.28.42-.62h2.49c9.62 0 19.24 0 28.85-.19 2.22 0 2.91.74 3.49 2.73 2.68 9.11 8.69 15 17.91 17.31 8.9 2.22 16.74-.07 23.39-6.38 3.93-3.72 6.12-8.4 7.24-13.83 4.12 0 8.13 0 12.14-.06 6-.09 9.16-3.34 9.14-9.37q-.16-19.78-.24-39.58zM89.34 9.033c1.72-1.53 7.18-1.62 9.27-.32s2.53 3.45 1.83 8l-12.75.05c-.07-2.76-.78-5.57 1.65-7.73zm-80.66 59.6a57.87 57.87 0 0 1 .16-20.27c2.49-13.56 13.79-22.47 27.94-23.3 3-.17 5.93-.05 9.35-.07v8.1c.05 2.09.83 3.79 3.07 4.31 2.53.59 4.64-1.08 4.74-3.85.1-2.77 0-5.55 0-8.47l80.52-.36c0 2.84-.08 5.53.06 8.21.16 3 2 4.55 4.55 4.11 2.55-.44 3.22-2.2 3.27-4.38.06-2.61 0-5.21 0-7.76 20.3-2.9 34.39 7.27 37.64 23 1.89 9.18 2.23 18.7-2.09 27.51-4.9 9.95-13.05 15.71-24.26 16.7-3.53.32-7.12.08-11 .1v-3.23l-.16-36.72c0-4.23-1.33-6.14-4.09-6-2.76.14-3.83 1.9-3.81 6q.06 18.36.15 36.72v3.29l-80.47.35v-2.9q-.09-18.49-.17-37a22.92 22.92 0 0 0-.07-2.62 3.85 3.85 0 0 0-7.59-.44 13.08 13.08 0 0 0-.2 2.87q.06 18.48.16 37v2.83c-19.07 3.16-34.6-6.43-37.7-23.73zm20.89 83.13a17.32 17.32 0 0 1-17.11-17 17.06 17.06 0 1 1 17.11 17zm21-30.7-2.57-3.24h5.12zm21.27 30.51a17.35 17.35 0 0 1-17.29-17.1 17.17 17.17 0 0 1 17-17 17.06 17.06 0 0 1 .29 34.1zm-29.9-42.12v-8.49l105.42-.47v8.49zm114 28.66c-.27 2.93-1.75 4.61-4.66 4.67q-12.33.24-24.66.12c-3 0-4.56-1.71-4.82-4.78a21.3 21.3 0 0 1 0-3.66c.28-3.08 1.81-4.56 4.92-4.63 4.11-.09 8.22-.05 12.32-.07 3.94 0 7.87-.09 11.81 0 3.25 0 4.81 1.52 5.09 4.73a20.34 20.34 0 0 1 .03 3.62zm47.19-19.36a68.66 68.66 0 0 0-3.78 7.14c-1.62 4.07-1.48 4.13-6 4.15-9.18 0-18.36 0-27.54.15a3.44 3.44 0 0 1-3.66-2.05 11.16 11.16 0 0 0-10.21-6.26q-13.11-.09-26.22.11c-4.79.08-8.15 2.61-10.55 6.68a3.62 3.62 0 0 1-2.45 1.65c-4.89.17-9.79.17-14.69.08a2.85 2.85 0 0 1-2.1-1.27c-1.78-3.82-3.38-7.72-5.09-11.7l113.43-.5c-.43.74-.8 1.26-1.11 1.82zm45.11-59.75c2.87 6.35 5.58 12.77 8.32 19.18a4.14 4.14 0 0 1 0 1.07h-5.48c-6.19 0-12.39.09-18.59.07-6.7 0-10-3.28-10-9.92v-11.61h6.36c5.68 0 11.35-.1 17 0a3.19 3.19 0 0 1 2.39 1.21zm-25.07 91.91a17.19 17.19 0 0 1-17.2-17.12 17.05 17.05 0 0 1 34.1-.1 17.34 17.34 0 0 1-16.9 17.22zm37.78-61c-.14 3.31 0 6.63 0 10.29-4 .18-8.28-.47-11 3.43-2.11 3-1.63 6.37-1.43 9.63.3 5.1 3.26 6.86 12.55 7.69v8.5l-12.5.05c-2.45-4.31-4.22-8.67-7.06-12.16-5-6.12-11.88-8.61-19.74-8.5-5.22.07-10.45 0-16 .08v-3.11q-.14-29.11-.26-58.22c0-5.2 1.32-6.57 6.44-6.6 6.38 0 12.76-.11 19.14-.08 6.38.03 11.12 3.18 12.91 8.89l-21.7.09c-7.46 0-7.84.42-7.8 7.87v11.28c.07 11.48 6.8 18.17 18.33 18.17 8.39 0 16.78 0 25.17-.15 2.29.01 3.04.71 2.95 2.89zm-.11 18.45v4.4h-4.49v-4.4z"/>
  <path fill="#1a1a1a" d="M24.944 150.847c-4.555-1.445-8.262-4.566-10.362-8.724-4.256-8.432-.927-18.207 7.644-22.443 2.973-1.47 3.238-1.524 7.399-1.524 4.028 0 4.491.087 6.964 1.304 7.717 3.8 11.443 12.21 8.965 20.234-1.556 5.037-6.161 9.632-11.134 11.11-2.486.737-7.217.759-9.476.043zM67.637 150.773c-4.903-1.318-9.037-4.766-11.34-9.456-1.051-2.142-1.151-2.737-1.151-6.836 0-4.098.1-4.693 1.151-6.835 2.53-5.155 7.288-8.77 12.82-9.74 7.1-1.247 14.998 3.501 17.684 10.63 3.559 9.444-1.77 19.697-11.596 22.314-2.635.701-4.754.68-7.568-.077zM217.955 149.882c-4.753-1.697-8.13-4.76-10.258-9.307-1.025-2.187-1.134-2.854-1.134-6.92 0-4.246.074-4.649 1.32-7.178 6.292-12.776 24.311-12.574 30.43.342 1.202 2.539 1.309 3.099 1.309 6.846 0 3.741-.108 4.31-1.3 6.825-1.798 3.797-4.474 6.53-8.189 8.366-2.66 1.315-3.467 1.515-6.567 1.633-2.65.1-4.054-.051-5.61-.607z"/>
  <path fill="#b3b3b3" d="M32.086 92.029c-12.082-2.469-20.6-10.893-23.038-22.787-1.389-6.772-1.216-16.171.415-22.618 2.309-9.124 9.34-16.489 18.794-19.686 3.79-1.282 4.445-1.376 10.835-1.545l6.802-.18.137 5.184c.134 5.102.154 5.2 1.281 6.169 1.63 1.4 4.268 1.369 5.62-.068.917-.976 1-1.416 1.123-6.055l.134-5.004 28.436-.27c15.64-.149 33.623-.27 39.965-.271h11.53v3.208c0 7.031.926 9.036 4.175 9.036 3.481 0 4.39-1.698 4.393-8.217l.002-3.931 3.095-.29c7.132-.669 15.056 1.044 20.985 4.535 9.017 5.31 13.568 14.488 14.138 28.513.299 7.345-.562 11.95-3.266 17.476-4.075 8.33-10.41 13.634-18.87 15.797-3.297.843-12.257 1.487-14.595 1.048l-1.487-.278-.002-20.49c-.002-21.097-.122-22.86-1.657-24.395-1.151-1.151-3.7-1.055-5.154.195l-1.145.985-.112 22.075-.113 22.075H54.534V83.53c0-4.79-.123-14.568-.272-21.73l-.273-13.022-1.125-1.125c-1.559-1.56-3.575-1.534-5.364.067l-1.333 1.193.016 21.623.017 21.624-1.445.239c-2.49.412-9.899.195-12.669-.371zM248.494 128.87c-.226-.281-1.098-1.882-1.937-3.559-3.786-7.565-7.503-11.715-12.704-14.185-4.31-2.046-7.848-2.53-18.617-2.547l-9.285-.014-.102-25.406c-.154-38.2-.147-38.748.454-39.828 1.076-1.933 2.362-2.108 15.537-2.108 11.475 0 12.386.054 14.555.866 2.847 1.065 5.217 3.148 6.53 5.74l.996 1.965h-13.006c-8.147 0-13.472.162-14.253.434-2.122.74-2.345 1.923-2.342 12.422 0 6.073.182 10.154.512 11.56 1.589 6.766 6.425 11.447 13.142 12.72 1.206.23 8.72.412 16.928.412 10.935 0 14.886.127 15.249.49.335.335.49 2.317.49 6.265v5.776l-3.303.255c-5.411.417-7.99 2.424-8.93 6.95-.6 2.893.027 8.55 1.11 10.01 1.168 1.575 3.57 2.778 6.603 3.308 1.476.258 3.188.563 3.806.677l1.122.209v8.098h-6.072c-4.367 0-6.188-.144-6.483-.51zM96.849 129.686c-.62-.456-5.795-11.686-5.5-11.935.067-.056 25.428-.233 56.358-.393l56.238-.29-1.237 2.01c-.68 1.106-2.077 3.784-3.104 5.951-1.027 2.168-2.19 4.114-2.584 4.325-.535.286-27.34.663-32.806.46-.408-.015-1.333-.986-2.141-2.249-1.443-2.256-2.928-3.597-5.506-4.973-1.325-.707-2.585-.763-17.346-.763-19.752 0-18.36-.4-24.747 7.104l-1.075 1.263h-7.928c-5.7 0-8.123-.143-8.622-.51z"/>
  <path fill="#b3b3b3" d="M124.483 142.235c-1.89-.98-2.403-2.3-2.403-6.176 0-3.16.078-3.474 1.12-4.516 1.455-1.455 3.968-1.695 17.858-1.703 11.808-.007 12.868.175 13.978 2.397.896 1.794.952 6.11.102 7.9-1.13 2.384-1.184 2.393-15.894 2.583-11.843.152-13.646.093-14.761-.485z"/>
</svg>
