<?xml version="1.0" encoding="UTF-8" standalone="no"?>
<svg
   id="CristoIlustracion"
   viewBox="0 0 1204.39 600"
   version="1.1"
   sodipodi:docname="fotoCristo1.svg"
   inkscape:version="1.1.2 (76b9e6a115, 2022-02-25)"
   xmlns:inkscape="http://www.inkscape.org/namespaces/inkscape"
   xmlns:sodipodi="http://sodipodi.sourceforge.net/DTD/sodipodi-0.dtd"
   xmlns:xlink="http://www.w3.org/1999/xlink"
   xmlns="http://www.w3.org/2000/svg"
   xmlns:svg="http://www.w3.org/2000/svg"
   xmlns:rdf="http://www.w3.org/1999/02/22-rdf-syntax-ns#"
   xmlns:cc="http://creativecommons.org/ns#"
   xmlns:dc="http://purl.org/dc/elements/1.1/">
  <sodipodi:namedview
     id="namedview137"
     pagecolor="#ffffff"
     bordercolor="#666666"
     borderopacity="1.0"
     inkscape:pageshadow="2"
     inkscape:pageopacity="0.0"
     inkscape:pagecheckerboard="0"
     showgrid="false"
     inkscape:zoom="1.1275417"
     inkscape:cx="602.63845"
     inkscape:cy="300.21062"
     inkscape:window-width="1920"
     inkscape:window-height="1016"
     inkscape:window-x="0"
     inkscape:window-y="0"
     inkscape:window-maximized="1"
     inkscape:current-layer="CristoIlustracion" />
  <defs
     id="defs56">
    <style
       id="style2">.cls-1,.cls-50{fill:none;}.cls-1,.cls-25{stroke:#037200;stroke-miterlimit:10;stroke-width:1.22px;}.cls-2{fill:url(#Degradado_sin_nombre_48);}.cls-3{fill:url(#Degradado_sin_nombre_48-2);}.cls-4{fill:url(#Degradado_sin_nombre_48-3);}.cls-5{fill:url(#Degradado_sin_nombre_48-4);}.cls-6{fill:url(#Degradado_sin_nombre_48-5);}.cls-7{fill:url(#Degradado_sin_nombre_48-6);}.cls-8{fill:url(#Degradado_sin_nombre_48-7);}.cls-9{fill:url(#Degradado_sin_nombre_48-8);}.cls-10{fill:url(#Degradado_sin_nombre_48-9);}.cls-11{fill:url(#Degradado_sin_nombre_48-10);}.cls-12{fill:url(#Degradado_sin_nombre_48-11);}.cls-13{fill:url(#Degradado_sin_nombre_48-12);}.cls-14{fill:url(#Degradado_sin_nombre_48-13);}.cls-15{fill:url(#Degradado_sin_nombre_48-14);}.cls-16{fill:url(#Degradado_sin_nombre_48-15);}.cls-17{fill:url(#Degradado_sin_nombre_48-16);}.cls-18{fill:url(#Degradado_sin_nombre_48-17);}.cls-19{fill:url(#Degradado_sin_nombre_48-18);}.cls-20{fill:url(#Degradado_sin_nombre_48-19);}.cls-21{fill-rule:evenodd;fill:url(#Degradado_sin_nombre_48-20);}.cls-22{fill:url(#Degradado_sin_nombre_48-21);}.cls-23{fill:url(#Degradado_sin_nombre_48-22);}.cls-24{fill:url(#Degradado_sin_nombre_48-23);}.cls-25{fill:url(#Degradado_sin_nombre_48-24);}.cls-26{fill:url(#Degradado_sin_nombre_48-25);}.cls-27{fill:url(#Degradado_sin_nombre_48-26);}.cls-28{fill:url(#Degradado_sin_nombre_48-27);}.cls-29{fill:url(#Degradado_sin_nombre_48-28);}.cls-30{fill:url(#Degradado_sin_nombre_48-29);}.cls-31{fill:url(#Degradado_sin_nombre_48-30);}.cls-32{fill:url(#Degradado_sin_nombre_48-31);}.cls-33{fill:url(#Degradado_sin_nombre_48-32);}.cls-34{fill:url(#Degradado_sin_nombre_48-33);}.cls-35{fill:url(#Degradado_sin_nombre_48-34);}.cls-36{fill:url(#Degradado_sin_nombre_48-35);}.cls-37{fill:url(#Degradado_sin_nombre_48-36);}.cls-38{fill:url(#Degradado_sin_nombre_48-37);}.cls-39{fill:url(#Degradado_sin_nombre_48-38);}.cls-40{fill:url(#Degradado_sin_nombre_48-39);}.cls-41{fill:url(#Degradado_sin_nombre_48-40);}.cls-42{fill:url(#Degradado_sin_nombre_48-41);}.cls-43{fill:url(#Degradado_sin_nombre_48-42);}.cls-44{fill:url(#Degradado_sin_nombre_48-43);}.cls-45{fill:url(#Degradado_sin_nombre_48-44);}.cls-46{fill:url(#Degradado_sin_nombre_48-45);}.cls-47{fill:url(#Degradado_sin_nombre_48-46);}.cls-48{fill:url(#Degradado_sin_nombre_48-47);}.cls-49{fill:url(#Degradado_sin_nombre_48-48);}</style>
    <linearGradient
       id="Degradado_sin_nombre_48"
       x1="530.24"
       y1="124.34"
       x2="530.24"
       y2="165.35"
       gradientTransform="matrix(1, 0, 0, -1, 5.5, 690.39)"
       gradientUnits="userSpaceOnUse">
      <stop
         offset="0"
         stop-color="#fff"
         id="stop4" />
      <stop
         offset="1"
         stop-color="#037200"
         stop-opacity="0.6"
         id="stop6" />
    </linearGradient>
    <linearGradient
       id="Degradado_sin_nombre_48-2"
       x1="551.75"
       y1="167.09"
       x2="551.75"
       y2="183.65"
       xlink:href="#Degradado_sin_nombre_48" />
    <linearGradient
       id="Degradado_sin_nombre_48-3"
       x1="589.33"
       y1="561.94"
       x2="589.33"
       y2="568.05"
       xlink:href="#Degradado_sin_nombre_48" />
    <linearGradient
       id="Degradado_sin_nombre_48-4"
       x1="593.55"
       y1="964.4"
       x2="593.55"
       y2="965.62"
       gradientTransform="matrix(1, 0, 0, -1, 4.28, 1080.47)"
       xlink:href="#Degradado_sin_nombre_48" />
    <linearGradient
       id="Degradado_sin_nombre_48-5"
       x1="589.02"
       y1="573.05"
       x2="589.02"
       y2="575.24"
       xlink:href="#Degradado_sin_nombre_48" />
    <linearGradient
       id="Degradado_sin_nombre_48-6"
       x1="592.36"
       y1="572.63"
       x2="592.36"
       y2="574.73"
       xlink:href="#Degradado_sin_nombre_48" />
    <linearGradient
       id="Degradado_sin_nombre_48-7"
       x1="620.53"
       y1="576.29"
       x2="620.53"
       y2="594"
       xlink:href="#Degradado_sin_nombre_48" />
    <linearGradient
       id="Degradado_sin_nombre_48-8"
       x1="562.96"
       y1="543.92"
       x2="562.96"
       y2="589.73"
       xlink:href="#Degradado_sin_nombre_48" />
    <linearGradient
       id="Degradado_sin_nombre_48-9"
       x1="583.19"
       y1="557.36"
       x2="583.19"
       y2="576.29"
       xlink:href="#Degradado_sin_nombre_48" />
    <linearGradient
       id="Degradado_sin_nombre_48-10"
       x1="613.62"
       y1="541.48"
       x2="613.62"
       y2="573.85"
       xlink:href="#Degradado_sin_nombre_48" />
    <linearGradient
       id="Degradado_sin_nombre_48-11"
       x1="587.29"
       y1="464.83"
       x2="587.29"
       y2="529.87"
       xlink:href="#Degradado_sin_nombre_48" />
    <linearGradient
       id="Degradado_sin_nombre_48-12"
       x1="596.93"
       y1="466.97"
       x2="596.93"
       y2="531.95"
       xlink:href="#Degradado_sin_nombre_48" />
    <linearGradient
       id="Degradado_sin_nombre_48-13"
       x1="589.63"
       y1="556.14"
       x2="589.63"
       y2="558.58"
       xlink:href="#Degradado_sin_nombre_48" />
    <linearGradient
       id="Degradado_sin_nombre_48-14"
       x1="587.36"
       y1="429.71"
       x2="587.36"
       y2="456.6"
       xlink:href="#Degradado_sin_nombre_48" />
    <linearGradient
       id="Degradado_sin_nombre_48-15"
       x1="589.93"
       y1="428.29"
       x2="589.93"
       y2="452"
       xlink:href="#Degradado_sin_nombre_48" />
    <linearGradient
       id="Degradado_sin_nombre_48-16"
       x1="578.71"
       y1="664.53"
       x2="578.71"
       y2="844.3"
       gradientTransform="matrix(1, 0, 0, -1, 4.28, 1080.47)"
       xlink:href="#Degradado_sin_nombre_48" />
    <linearGradient
       id="Degradado_sin_nombre_48-17"
       x1="605.98"
       y1="665.75"
       x2="605.98"
       y2="844.09"
       gradientTransform="matrix(1, 0, 0, -1, 4.28, 1080.47)"
       xlink:href="#Degradado_sin_nombre_48" />
    <linearGradient
       id="Degradado_sin_nombre_48-18"
       x1="591.65"
       y1="245.48"
       x2="591.65"
       y2="270.31"
       xlink:href="#Degradado_sin_nombre_48" />
    <linearGradient
       id="Degradado_sin_nombre_48-19"
       x1="593.86"
       y1="579.63"
       x2="593.86"
       y2="650.48"
       gradientTransform="matrix(1, 0, 0, -1, 4.28, 1080.47)"
       xlink:href="#Degradado_sin_nombre_48" />
    <linearGradient
       id="Degradado_sin_nombre_48-20"
       x1="594.06"
       y1="10.22"
       x2="594.06"
       y2="-42.67"
       gradientTransform="matrix(1, 0, 0, -1.6, 5.5, 550.31)"
       xlink:href="#Degradado_sin_nombre_48" />
    <linearGradient
       id="Degradado_sin_nombre_48-21"
       x1="51.87"
       y1="678.19"
       x2="51.87"
       y2="758.34"
       gradientTransform="matrix(1, 0, 0, -1, 4.28, 1080.47)"
       xlink:href="#Degradado_sin_nombre_48" />
    <linearGradient
       id="Degradado_sin_nombre_48-22"
       x1="423.27"
       y1="676.74"
       x2="423.27"
       y2="693.84"
       gradientTransform="matrix(1, 0, 0, -1, 4.28, 1080.47)"
       xlink:href="#Degradado_sin_nombre_48" />
    <linearGradient
       id="Degradado_sin_nombre_48-23"
       x1="922.61"
       y1="619.94"
       x2="922.61"
       y2="652.31"
       gradientTransform="matrix(1, 0, 0, -1, 4.28, 1080.47)"
       xlink:href="#Degradado_sin_nombre_48" />
    <linearGradient
       id="Degradado_sin_nombre_48-24"
       x1="961.56"
       y1="583.96"
       x2="961.56"
       y2="614.14"
       gradientTransform="matrix(1, 0, 0, -1, 4.28, 1080.47)"
       xlink:href="#Degradado_sin_nombre_48" />
    <linearGradient
       id="Degradado_sin_nombre_48-25"
       x1="408.58"
       y1="195.18"
       x2="408.58"
       y2="262.84"
       xlink:href="#Degradado_sin_nombre_48" />
    <linearGradient
       id="Degradado_sin_nombre_48-26"
       x1="1151.56"
       y1="201.29"
       x2="1151.56"
       y2="271.36"
       xlink:href="#Degradado_sin_nombre_48" />
    <linearGradient
       id="Degradado_sin_nombre_48-27"
       x1="847.78"
       y1="186.02"
       x2="847.78"
       y2="210.66"
       xlink:href="#Degradado_sin_nombre_48" />
    <linearGradient
       id="Degradado_sin_nombre_48-28"
       x1="132.09"
       y1="540.03"
       x2="132.09"
       y2="574.14"
       gradientTransform="matrix(1, 0, 0, -1, 4.28, 1080.47)"
       xlink:href="#Degradado_sin_nombre_48" />
    <linearGradient
       id="Degradado_sin_nombre_48-29"
       x1="157.23"
       y1="542.38"
       x2="157.23"
       y2="574.14"
       gradientTransform="matrix(1, 0, 0, -1, 4.28, 1080.47)"
       xlink:href="#Degradado_sin_nombre_48" />
    <linearGradient
       id="Degradado_sin_nombre_48-30"
       x1="184.5"
       y1="542.38"
       x2="184.5"
       y2="574.14"
       gradientTransform="matrix(1, 0, 0, -1, 4.28, 1080.47)"
       xlink:href="#Degradado_sin_nombre_48" />
    <linearGradient
       id="Degradado_sin_nombre_48-31"
       x1="212.38"
       y1="542.38"
       x2="212.38"
       y2="574.14"
       gradientTransform="matrix(1, 0, 0, -1, 4.28, 1080.47)"
       xlink:href="#Degradado_sin_nombre_48" />
    <linearGradient
       id="Degradado_sin_nombre_48-32"
       x1="250.26"
       y1="541.73"
       x2="250.26"
       y2="574.14"
       gradientTransform="matrix(1, 0, 0, -1, 4.28, 1080.47)"
       xlink:href="#Degradado_sin_nombre_48" />
    <linearGradient
       id="Degradado_sin_nombre_48-33"
       x1="285.4"
       y1="542.96"
       x2="285.4"
       y2="574.14"
       gradientTransform="matrix(1, 0, 0, -1, 4.28, 1080.47)"
       xlink:href="#Degradado_sin_nombre_48" />
    <linearGradient
       id="Degradado_sin_nombre_48-34"
       x1="306.92"
       y1="543.35"
       x2="306.92"
       y2="570.47"
       gradientTransform="matrix(1, 0, 0, -1, 4.28, 1080.47)"
       xlink:href="#Degradado_sin_nombre_48" />
    <linearGradient
       id="Degradado_sin_nombre_48-35"
       x1="434.18"
       y1="547.26"
       x2="434.18"
       y2="582.69"
       gradientTransform="matrix(1, 0, 0, -1, 4.28, 1080.47)"
       xlink:href="#Degradado_sin_nombre_48" />
    <linearGradient
       id="Degradado_sin_nombre_48-36"
       x1="443.57"
       y1="547.26"
       x2="443.57"
       y2="582.69"
       gradientTransform="matrix(1, 0, 0, -1, 4.28, 1080.47)"
       xlink:href="#Degradado_sin_nombre_48" />
    <linearGradient
       id="Degradado_sin_nombre_48-37"
       x1="897.46"
       y1="550.93"
       x2="897.46"
       y2="578.41"
       gradientTransform="matrix(1, 0, 0, -1, 4.28, 1080.47)"
       xlink:href="#Degradado_sin_nombre_48" />
    <linearGradient
       id="Degradado_sin_nombre_48-38"
       x1="930.49"
       y1="550.93"
       x2="930.49"
       y2="579.63"
       gradientTransform="matrix(1, 0, 0, -1, 4.28, 1080.47)"
       xlink:href="#Degradado_sin_nombre_48" />
    <linearGradient
       id="Degradado_sin_nombre_48-39"
       x1="958.97"
       y1="550.93"
       x2="958.97"
       y2="579.63"
       gradientTransform="matrix(1, 0, 0, -1, 4.28, 1080.47)"
       xlink:href="#Degradado_sin_nombre_48" />
    <linearGradient
       id="Degradado_sin_nombre_48-40"
       x1="986.24"
       y1="549.09"
       x2="986.24"
       y2="579.63"
       gradientTransform="matrix(1, 0, 0, -1, 4.28, 1080.47)"
       xlink:href="#Degradado_sin_nombre_48" />
    <linearGradient
       id="Degradado_sin_nombre_48-41"
       x1="1100.17"
       y1="544.82"
       x2="1100.17"
       y2="586.35"
       gradientTransform="matrix(1, 0, 0, -1, 4.28, 1080.47)"
       xlink:href="#Degradado_sin_nombre_48" />
    <linearGradient
       id="Degradado_sin_nombre_48-42"
       x1="1172.28"
       y1="544.82"
       x2="1172.28"
       y2="589.21"
       gradientTransform="matrix(1, 0, 0, -1, 4.28, 1080.47)"
       xlink:href="#Degradado_sin_nombre_48" />
    <linearGradient
       id="Degradado_sin_nombre_48-43"
       x1="782.93"
       y1="589.4"
       x2="782.93"
       y2="651.09"
       gradientTransform="matrix(1, 0, 0, -1, 4.28, 1080.47)"
       xlink:href="#Degradado_sin_nombre_48" />
    <linearGradient
       id="Degradado_sin_nombre_48-44"
       x1="503.26"
       y1="582.69"
       x2="503.26"
       y2="606.51"
       gradientTransform="matrix(1, 0, 0, -1, 4.28, 1080.47)"
       xlink:href="#Degradado_sin_nombre_48" />
    <linearGradient
       id="Degradado_sin_nombre_48-45"
       x1="843.22"
       y1="612"
       x2="843.22"
       y2="647.43"
       gradientTransform="matrix(1, 0, 0, -1, 4.28, 1080.47)"
       xlink:href="#Degradado_sin_nombre_48" />
    <linearGradient
       id="Degradado_sin_nombre_48-46"
       x1="1137.43"
       y1="693.84"
       x2="1137.43"
       y2="721.94"
       gradientTransform="matrix(1, 0, 0, -1, 4.28, 1080.47)"
       xlink:href="#Degradado_sin_nombre_48" />
    <linearGradient
       id="Degradado_sin_nombre_48-47"
       x1="146.63"
       y1="583.91"
       x2="146.63"
       y2="604.67"
       gradientTransform="matrix(1, 0, 0, -1, 4.28, 1080.47)"
       xlink:href="#Degradado_sin_nombre_48" />
    <linearGradient
       id="Degradado_sin_nombre_48-48"
       x1="214.2"
       y1="582.69"
       x2="214.2"
       y2="599.18"
       gradientTransform="matrix(1, 0, 0, -1, 4.28, 1080.47)"
       xlink:href="#Degradado_sin_nombre_48" />
  </defs>
  <title
     id="title58">CristoIlustracion</title>
  <g
     id="Cristo">
    <path
       id="path60"
       class="cls-1"
       d="M582.71,225.56s-1.82-50.08,1.21-67.79c0,0,0-4.89-10.91-11.61s-22.42-26.87-22.42-26.87V104.63s-1.21.61-2.43-2.44,0-11,0-11l3-1.22,3,1.83.61,7.33s1.21,6.71,2.42,6.71,8.26,20.13,25.83,24.83a6.5,6.5,0,0,0,1.7.22H587s-.61-1.23-.61-8.56c0-7.55,4.85-10.38,4.85-10.38,0-.61,6.61-3.55,9.09,2.45,3,7.32,0,15.87,0,15.87s2.12,2.75,16.66-18c1.82-10.39,1.52-6.42,2.13-11.3s10.3-15.88,10.3-15.88.6-1.22,2.42,0,0,6.11,0,6.11-3,5.49-3,6.72c0,3.66.61,16.49,0,19.54s-5.45,15.88-18.18,36c-.6,25,1.21,14.66-3,72.07,6.67,0,4.85-1.22,6.67,0v7.33s10.91,4.28,13.33,9.16h4.85s.6-4.88,8.48-6.72c0,0,3,5.5-10.91,12.22,0,0-2.42,9.16-20,14.05l7.87,158.18c.61,0,34.54,0,45.45,4.27s13.94,5.5,13.94,8.55,1.82,7.94-58.78,12.22l1.21,59.85H577.25l.61-59.24s-57.57,2.44-60-11,58.79-14.05,58.79-14.05L579.07,261s-15.76-2.44-20-11.6c0,0-10.91-1.83-11.51-11,0,0,8.48,1.83,10.91,4.27,0,0,2.42-6.72,12.12-8.55v-8.55Z"
       transform="translate(0.28 -3.53)" />
    <line
       id="line62"
       class="cls-1"
       x1="582.99"
       y1="222.03"
       x2="607.83"
       y2="222.03" />
    <path
       id="path64"
       class="cls-1"
       d="M608.76,154.71s-15.75,3.06-24.24,7.94"
       transform="translate(0.28 -3.53)" />
    <path
       id="path66"
       class="cls-1"
       d="M570.59,234.11s14.54-5.49,43.63-1.22"
       transform="translate(0.28 -3.53)" />
    <polyline
       id="polyline68"
       class="cls-1"
       points="579.35 257.46 579.96 234.86 609.05 234.86 610.26 258.07" />
    <path
       id="path70"
       class="cls-1"
       d="M576.65,420.39s22.42-.61,41.2-.61"
       transform="translate(0.28 -3.53)" />
    <polyline
       id="polyline72"
       class="cls-1"
       points="578.14 441.9 578.14 430.3 618.14 430.3 618.74 441.29" />
    <path
       id="path74"
       class="cls-1"
       d="M483.93,564.53s142.41,14,233.31,0l-17-30.54s-180.06-15.22-201.19-9.77Z"
       transform="translate(0.28 -3.53)" />
    <path
       id="path76"
       class="cls-1"
       d="M514.72,523l6.78-16.53c21.21-2.45,55.15-1.84,55.15-1.84h43a346.23,346.23,0,0,1,47.27,3.06l17,25,512.06,14V489.4L671.11,513.9"
       transform="translate(0.28 -3.53)" />
    <path
       id="path78"
       class="cls-2"
       d="M500.59,526.35s30.3-3.66,83,1.23L577,566.05s-47.88,0-89.08-4.27Z"
       transform="translate(0.28 -3.53)" />
    <path
       id="path80"
       class="cls-3"
       d="M523,508s64.85-2.44,73.33-.61l-2.42,15.88s-54.54-2.44-75.75-2.44Z"
       transform="translate(0.28 -3.53)" />
    <path
       id="path82"
       class="cls-4"
       d="M590,125.4s5.45-3.06,6.66-3.06,3,0,3,1.84a3.61,3.61,0,0,1-.6,2.44l-4.85,1.83Z"
       transform="translate(0.28 -3.53)" />
    <polygon
       id="polygon84"
       class="cls-5"
       points="599.05 116.07 597.84 114.85 596.62 116.07 599.05 116.07" />
    <path
       id="path86"
       class="cls-6"
       d="M592.7,115.93a1.79,1.79,0,0,1,2.21-.68.65.65,0,0,1,.35.26l1.08,1.64s-2,.44-2.42,0"
       transform="translate(0.28 -3.53)" />
    <path
       id="path88"
       class="cls-7"
       d="M597,115.93s.6-.61,1.81,0l-.6,1.83Z"
       transform="translate(0.28 -3.53)" />
    <path
       id="path90"
       class="cls-8"
       d="M624.22,96.39s1.21,3,3.63,1.22V114.1Z"
       transform="translate(0.28 -3.53)" />
    <path
       id="path92"
       class="cls-9"
       d="M553.31,100.66,551.5,119.6s12.12,20.15,18.78,23.82l4.24,3.05s-2.42-12.22,10.91-15.27c0,0-7.88-1.22-17-9.16C565.53,119.48,553.31,100.66,553.31,100.66Z"
       transform="translate(0.28 -3.53)" />
    <path
       id="path94"
       class="cls-10"
       d="M590,114.1a75.5,75.5,0,0,0,.91,18.93l-4.25-2.44v-9.37A6.42,6.42,0,0,1,590,114.1Z"
       transform="translate(0.28 -3.53)" />
    <path
       id="path96"
       class="cls-11"
       d="M610.88,148.91s17-30.53,16.37-32.37C627.25,116.54,629.67,120.82,610.88,148.91Z"
       transform="translate(0.28 -3.53)" />
    <path
       id="path98"
       class="cls-12"
       d="M588.69,225.56s-.83-48.55,3.41-63.21l4.85-1.83-2.43,62.9Z"
       transform="translate(0.28 -3.53)" />
    <path
       id="path100"
       class="cls-13"
       d="M607.25,158.68s-5.46-1.22-7.88,1.84l-1.82,62.9h6.67S607.85,183.73,607.25,158.68Z"
       transform="translate(0.28 -3.53)" />
    <path
       id="path102"
       class="cls-14"
       d="M591.49,132.42l4.85,1.83,2.42-2.44S592.1,133,591.49,132.42Z"
       transform="translate(0.28 -3.53)" />
    <path
       id="path104"
       class="cls-15"
       d="M558.77,249.69s-2.43-15.27,35.75-15.88,32.12,17.71,32.12,17.71-2.42,4.88-16.36,9.16l-1.82-22.6H578.77l-.61,22S566,260.07,558.77,249.69Z"
       transform="translate(0.28 -3.53)" />
    <path
       id="path106"
       class="cls-16"
       d="M588.69,238.39l-.23,22.9s1.82,1.83,13.94,0v-22.9"
       transform="translate(0.28 -3.53)" />
    <line
       id="line108"
       class="cls-1"
       x1="588.75"
       y1="234.55"
       x2="588.75"
       y2="415.95" />
    <line
       id="line110"
       class="cls-1"
       x1="602.68"
       y1="416.86"
       x2="602.68"
       y2="234.55" />
    <path
       id="path112"
       class="cls-1"
       d="M588.46,261.29s2.43,1.83,13.94,0"
       transform="translate(0.28 -3.53)" />
    <polygon
       id="polygon114"
       class="cls-17"
       points="587.53 415.94 578.44 415.94 579.92 236.17 586.93 236.38 587.53 415.94" />
    <polygon
       id="polygon116"
       class="cls-18"
       points="616.62 414.72 603.89 414.72 603.89 236.38 608.14 236.38 616.62 414.72" />
    <path
       id="path118"
       class="cls-19"
       d="M576.34,444.51v-11.6h41.82l1.21,10.38s26.66-1.22,41.81-3.66,15.15-6.11,15.15-6.11a2.72,2.72,0,0,0-1.21-3,40.58,40.58,0,0,0-12.73-6.11c-6.66-1.83-23.63-4.28-43.63-4.28s-38.18,1.23-42.42,1.23-50.85-.8-58.45,11.51c0,0-1.54,9.25,25.73,11.08S567.25,444.51,576.34,444.51Z"
       transform="translate(0.28 -3.53)" />
    <polygon
       id="polygon120"
       class="cls-20"
       points="619.04 500.84 577.23 500.84 578.44 429.99 616.62 430.3 619.04 500.84" />
  </g>
  <polygon
     id="polygon125"
     class="cls-22"
     points="12.23 322.13 112.3 355.19 94.19 402.28 0 385.53 0.45 347.04 12.23 322.13" />
  <polygon
     id="polygon127"
     class="cls-23"
     points="466.33 386.63 464.52 403.73 388.77 386.63 466.33 386.63" />
  <polygon
     id="polygon129"
     class="cls-24"
     points="953.55 428.16 905.08 460.53 900.23 433.05 953.55 428.16" />
  <polyline
     id="polyline131"
     class="cls-1"
     points="407.25 491.98 415.13 424.8 379.98 424.8 385.43 382.66 470.27 382.66 466.64 424.8 421.79 424.8 415.73 491.98" />
  <polyline
     id="polyline133"
     class="cls-1"
     points="1173.6 487.13 1145.35 415.64 1141.11 416.86 1169.24 487.13" />
  <polygon
     id="polygon135"
     class="cls-1"
     points="1095.66 424.19 1203.53 404.65 1179.89 349.68 1078.09 379.61 1095.66 424.19" />
  <polygon
     id="polygon137"
     class="cls-1"
     points="901.74 468.77 1023.55 463.89 1012.03 421.14 894.47 427.24 901.74 468.77" />
  <polygon
     id="polygon139"
     class="cls-25"
     points="959.92 466.33 968.34 496.51 971.77 496.51 962.64 466.33 959.92 466.33" />
  <polygon
     id="polygon141"
     class="cls-1"
     points="769.49 505.79 768.42 493.2 843.57 488.93 845.2 502.26 769.49 505.79" />
  <polygon
     id="polygon143"
     class="cls-1"
     points="812.66 434.57 818.24 490.37 782.97 492.59 775.7 437.02 792.06 426.02 801.15 428.46 812.66 434.57" />
  <line
     id="line145"
     class="cls-1"
     x1="798.27"
     y1="491.26"
     x2="792.06"
     y2="426.02" />
  <polygon
     id="polygon147"
     class="cls-1"
     points="824.78 478.55 875.68 473.66 867.81 429.69 821.14 442.51 824.78 478.55" />
  <polygon
     id="polygon149"
     class="cls-1"
     points="857.13 501.7 854.67 501.81 854.48 501.75 849.97 476.13 852.32 475.9 857.13 501.7" />
  <polyline
     id="polyline151"
     class="cls-1"
     points="515.12 470.61 544.81 470.61 564.81 477.94 564.81 501.14 545.33 501.43 544.81 470.61" />
  <path
     id="path153"
     class="cls-1"
     d="M466.35,501,493,504.67s3,32.52,1.21,32.52L3.37,546.81v-91l347.84,33.95L466.35,501V474.14h48.48V455.81h34.55v11L570.59,468v36.64"
     transform="translate(0.28 -3.53)" />
  <polygon
     id="polygon155"
     class="cls-1"
     points="351.5 485.88 351.5 474.27 379.98 474.27 379.98 489.02 351.5 485.88" />
  <polygon
     id="polygon157"
     class="cls-1"
     points="46.42 456.46 331.3 484.27 331.5 476.71 340.59 476.71 203.03 457.17 46.42 456.46" />
  <path
     id="path159"
     class="cls-26"
     d="M414.54,428.64s3.64-2.45,6.06,0l-6.06,66.57h-7Z"
     transform="translate(0.28 -3.53)" />
  <path
     id="path161"
     class="cls-27"
     d="M1141.47,420.21s.18-2,2.65-.77,28.52,69.66,28.52,69.66h-3Z"
     transform="translate(0.28 -3.53)" />
  <path
     id="path163"
     class="cls-28"
     d="M850.25,480.55s0-1.83,1.82,0l4.24,23.82h-1.82Z"
     transform="translate(0.28 -3.53)" />
  <rect
     id="rect165"
     class="cls-29"
     x="123.95"
     y="506.34"
     width="24.85"
     height="34.1" />
  <rect
     id="rect167"
     class="cls-30"
     x="152.43"
     y="506.34"
     width="18.18"
     height="31.76" />
  <rect
     id="rect169"
     class="cls-31"
     x="177.88"
     y="506.34"
     width="21.82"
     height="31.76" />
  <rect
     id="rect171"
     class="cls-32"
     x="206.36"
     y="506.34"
     width="20.6"
     height="31.76" />
  <polyline
     id="polyline173"
     class="cls-33"
     points="233.63 506.34 275.44 506.34 275.44 536.26 235.38 538.74 233.63 508.17" />
  <polygon
     id="polygon175"
     class="cls-34"
     points="281.5 506.34 297.87 508.17 297.87 537.51 281.5 537.48 281.5 506.34" />
  <polygon
     id="polygon177"
     class="cls-35"
     points="304.53 510 317.87 511.83 317.87 537.12 304.53 537.12 304.53 510" />
  <polygon
     id="polygon179"
     class="cls-36"
     points="434.82 498.4 434.82 497.79 442.09 498.4 442.09 533.21 435.43 533.21 434.82 498.4" />
  <polygon
     id="polygon181"
     class="cls-37"
     points="443.91 498.4 443.91 497.79 451.18 498.4 451.79 533.21 445.12 533.21 443.91 498.4" />
  <polygon
     id="polygon183"
     class="cls-38"
     points="888.71 503.89 914.77 502.06 914.77 529.54 888.71 529.54 888.71 503.89" />
  <polygon
     id="polygon185"
     class="cls-39"
     points="922.65 502.06 946.89 500.84 946.89 529.54 925.07 529.54 922.65 502.06" />
  <polygon
     id="polygon187"
     class="cls-40"
     points="954.77 502.06 968.71 500.84 971.74 529.54 954.77 529.54 954.77 502.06" />
  <polygon
     id="polygon189"
     class="cls-41"
     points="977.19 500.84 999 500.84 1003.85 531.38 980.22 531.38 977.19 500.84" />
  <polygon
     id="polygon191"
     class="cls-42"
     points="1057.79 497.18 1065.06 531.38 1151.11 535.65 1140.81 494.12 1057.79 497.18" />
  <polygon
     id="polygon193"
     class="cls-43"
     points="1157.17 496.56 1157.17 494.12 1195.95 491.26 1195.95 535.65 1162.02 535.65 1157.17 496.56" />
  <polygon
     id="polygon195"
     class="cls-44"
     points="778.42 437.93 790.54 429.38 796 489.85 784.48 491.07 778.42 437.93" />
  <polygon
     id="polygon197"
     class="cls-45"
     points="540.27 473.97 540.27 497.79 474.82 473.97 540.27 473.97" />
  <polygon
     id="polygon199"
     class="cls-46"
     points="870.53 468.47 824.48 444.65 864.47 433.05 870.53 468.47" />
  <polygon
     id="polygon201"
     class="cls-47"
     points="1172.93 358.54 1189.29 386.63 1094.15 382.96 1172.93 358.54" />
  <polygon
     id="polygon203"
     class="cls-48"
     points="123.95 475.8 177.88 481.3 177.88 496.56 123.95 492.9 123.95 475.8" />
  <polygon
     id="polygon205"
     class="cls-49"
     points="193.64 481.3 243.33 485.57 243.33 496.56 193.64 497.79 193.64 481.3" />
  <rect
     class="cls-50"
     x="2.68"
     width="1200"
     height="600"
     id="rect134" />
  <metadata
     id="metadata954">
    <rdf:RDF>
      <cc:Work
         rdf:about="">
        <dc:title>CristoIlustracion</dc:title>
      </cc:Work>
    </rdf:RDF>
  </metadata>
</svg>
