<svg xmlns="http://www.w3.org/2000/svg" xmlns:xlink="http://www.w3.org/1999/xlink" id="CristoIlustracion" version="1.1" viewBox="0 0 1204.4 600">
  <defs id="defs56">
    <linearGradient id="Degradado_sin_nombre_48" x1="530.2" x2="530.2" y1="124.3" y2="165.3" gradientTransform="matrix(1 0 0 -1 5.5 690.4)" gradientUnits="userSpaceOnUse">
      <stop id="stop4" offset="0" stop-color="#fff"/>
      <stop id="stop6" offset="1" stop-color="#037200" stop-opacity=".6"/>
    </linearGradient>
    <linearGradient xlink:href="#Degradado_sin_nombre_48" id="Degradado_sin_nombre_48-2" x1="551.8" x2="551.8" y1="167.1" y2="183.7"/>
    <linearGradient xlink:href="#Degradado_sin_nombre_48" id="Degradado_sin_nombre_48-3" x1="589.3" x2="589.3" y1="561.9" y2="568"/>
    <linearGradient xlink:href="#Degradado_sin_nombre_48" id="Degradado_sin_nombre_48-4" x1="593.5" x2="593.5" y1="964.4" y2="965.6" gradientTransform="matrix(1 0 0 -1 4.3 1080.5)"/>
    <linearGradient xlink:href="#Degradado_sin_nombre_48" id="Degradado_sin_nombre_48-5" x1="589" x2="589" y1="573" y2="575.2"/>
    <linearGradient xlink:href="#Degradado_sin_nombre_48" id="Degradado_sin_nombre_48-6" x1="592.4" x2="592.4" y1="572.6" y2="574.7"/>
    <linearGradient xlink:href="#Degradado_sin_nombre_48" id="Degradado_sin_nombre_48-7" x1="620.5" x2="620.5" y1="576.3" y2="594"/>
    <linearGradient xlink:href="#Degradado_sin_nombre_48" id="Degradado_sin_nombre_48-8" x1="563" x2="563" y1="543.9" y2="589.7"/>
    <linearGradient xlink:href="#Degradado_sin_nombre_48" id="Degradado_sin_nombre_48-9" x1="583.2" x2="583.2" y1="557.4" y2="576.3"/>
    <linearGradient xlink:href="#Degradado_sin_nombre_48" id="Degradado_sin_nombre_48-10" x1="613.6" x2="613.6" y1="541.5" y2="573.9"/>
    <linearGradient xlink:href="#Degradado_sin_nombre_48" id="Degradado_sin_nombre_48-11" x1="587.3" x2="587.3" y1="464.8" y2="529.9"/>
    <linearGradient xlink:href="#Degradado_sin_nombre_48" id="Degradado_sin_nombre_48-12" x1="596.9" x2="596.9" y1="467" y2="532"/>
    <linearGradient xlink:href="#Degradado_sin_nombre_48" id="Degradado_sin_nombre_48-13" x1="589.6" x2="589.6" y1="556.1" y2="558.6"/>
    <linearGradient xlink:href="#Degradado_sin_nombre_48" id="Degradado_sin_nombre_48-14" x1="587.4" x2="587.4" y1="429.7" y2="456.6"/>
    <linearGradient xlink:href="#Degradado_sin_nombre_48" id="Degradado_sin_nombre_48-15" x1="589.9" x2="589.9" y1="428.3" y2="452"/>
    <linearGradient xlink:href="#Degradado_sin_nombre_48" id="Degradado_sin_nombre_48-16" x1="578.7" x2="578.7" y1="664.5" y2="844.3" gradientTransform="matrix(1 0 0 -1 4.3 1080.5)"/>
    <linearGradient xlink:href="#Degradado_sin_nombre_48" id="Degradado_sin_nombre_48-17" x1="606" x2="606" y1="665.8" y2="844.1" gradientTransform="matrix(1 0 0 -1 4.3 1080.5)"/>
    <linearGradient xlink:href="#Degradado_sin_nombre_48" id="Degradado_sin_nombre_48-18" x1="591.6" x2="591.6" y1="245.5" y2="270.3"/>
    <linearGradient xlink:href="#Degradado_sin_nombre_48" id="Degradado_sin_nombre_48-19" x1="593.9" x2="593.9" y1="579.6" y2="650.5" gradientTransform="matrix(1 0 0 -1 4.3 1080.5)"/>
    <linearGradient xlink:href="#Degradado_sin_nombre_48" id="Degradado_sin_nombre_48-20" x1="594.1" x2="594.1" y1="10.2" y2="-42.7" gradientTransform="matrix(1 0 0 -1.6 5.5 550.3)"/>
    <linearGradient xlink:href="#Degradado_sin_nombre_48" id="Degradado_sin_nombre_48-21" x1="51.9" x2="51.9" y1="678.2" y2="758.3" gradientTransform="matrix(1 0 0 -1 4.3 1080.5)"/>
    <linearGradient xlink:href="#Degradado_sin_nombre_48" id="Degradado_sin_nombre_48-22" x1="423.3" x2="423.3" y1="676.7" y2="693.8" gradientTransform="matrix(1 0 0 -1 4.3 1080.5)"/>
    <linearGradient xlink:href="#Degradado_sin_nombre_48" id="Degradado_sin_nombre_48-23" x1="922.6" x2="922.6" y1="619.9" y2="652.3" gradientTransform="matrix(1 0 0 -1 4.3 1080.5)"/>
    <linearGradient xlink:href="#Degradado_sin_nombre_48" id="Degradado_sin_nombre_48-24" x1="961.6" x2="961.6" y1="584" y2="614.1" gradientTransform="matrix(1 0 0 -1 4.3 1080.5)"/>
    <linearGradient xlink:href="#Degradado_sin_nombre_48" id="Degradado_sin_nombre_48-25" x1="408.6" x2="408.6" y1="195.2" y2="262.8"/>
    <linearGradient xlink:href="#Degradado_sin_nombre_48" id="Degradado_sin_nombre_48-26" x1="1151.6" x2="1151.6" y1="201.3" y2="271.4"/>
    <linearGradient xlink:href="#Degradado_sin_nombre_48" id="Degradado_sin_nombre_48-27" x1="847.8" x2="847.8" y1="186" y2="210.7"/>
    <linearGradient xlink:href="#Degradado_sin_nombre_48" id="Degradado_sin_nombre_48-28" x1="132.1" x2="132.1" y1="540" y2="574.1" gradientTransform="matrix(1 0 0 -1 4.3 1080.5)"/>
    <linearGradient xlink:href="#Degradado_sin_nombre_48" id="Degradado_sin_nombre_48-29" x1="157.2" x2="157.2" y1="542.4" y2="574.1" gradientTransform="matrix(1 0 0 -1 4.3 1080.5)"/>
    <linearGradient xlink:href="#Degradado_sin_nombre_48" id="Degradado_sin_nombre_48-30" x1="184.5" x2="184.5" y1="542.4" y2="574.1" gradientTransform="matrix(1 0 0 -1 4.3 1080.5)"/>
    <linearGradient xlink:href="#Degradado_sin_nombre_48" id="Degradado_sin_nombre_48-31" x1="212.4" x2="212.4" y1="542.4" y2="574.1" gradientTransform="matrix(1 0 0 -1 4.3 1080.5)"/>
    <linearGradient xlink:href="#Degradado_sin_nombre_48" id="Degradado_sin_nombre_48-32" x1="250.3" x2="250.3" y1="541.7" y2="574.1" gradientTransform="matrix(1 0 0 -1 4.3 1080.5)"/>
    <linearGradient xlink:href="#Degradado_sin_nombre_48" id="Degradado_sin_nombre_48-33" x1="285.4" x2="285.4" y1="543" y2="574.1" gradientTransform="matrix(1 0 0 -1 4.3 1080.5)"/>
    <linearGradient xlink:href="#Degradado_sin_nombre_48" id="Degradado_sin_nombre_48-34" x1="306.9" x2="306.9" y1="543.4" y2="570.5" gradientTransform="matrix(1 0 0 -1 4.3 1080.5)"/>
    <linearGradient xlink:href="#Degradado_sin_nombre_48" id="Degradado_sin_nombre_48-35" x1="434.2" x2="434.2" y1="547.3" y2="582.7" gradientTransform="matrix(1 0 0 -1 4.3 1080.5)"/>
    <linearGradient xlink:href="#Degradado_sin_nombre_48" id="Degradado_sin_nombre_48-36" x1="443.6" x2="443.6" y1="547.3" y2="582.7" gradientTransform="matrix(1 0 0 -1 4.3 1080.5)"/>
    <linearGradient xlink:href="#Degradado_sin_nombre_48" id="Degradado_sin_nombre_48-37" x1="897.5" x2="897.5" y1="550.9" y2="578.4" gradientTransform="matrix(1 0 0 -1 4.3 1080.5)"/>
    <linearGradient xlink:href="#Degradado_sin_nombre_48" id="Degradado_sin_nombre_48-38" x1="930.5" x2="930.5" y1="550.9" y2="579.6" gradientTransform="matrix(1 0 0 -1 4.3 1080.5)"/>
    <linearGradient xlink:href="#Degradado_sin_nombre_48" id="Degradado_sin_nombre_48-39" x1="959" x2="959" y1="550.9" y2="579.6" gradientTransform="matrix(1 0 0 -1 4.3 1080.5)"/>
    <linearGradient xlink:href="#Degradado_sin_nombre_48" id="Degradado_sin_nombre_48-40" x1="986.2" x2="986.2" y1="549.1" y2="579.6" gradientTransform="matrix(1 0 0 -1 4.3 1080.5)"/>
    <linearGradient xlink:href="#Degradado_sin_nombre_48" id="Degradado_sin_nombre_48-41" x1="1100.2" x2="1100.2" y1="544.8" y2="586.4" gradientTransform="matrix(1 0 0 -1 4.3 1080.5)"/>
    <linearGradient xlink:href="#Degradado_sin_nombre_48" id="Degradado_sin_nombre_48-42" x1="1172.3" x2="1172.3" y1="544.8" y2="589.2" gradientTransform="matrix(1 0 0 -1 4.3 1080.5)"/>
    <linearGradient xlink:href="#Degradado_sin_nombre_48" id="Degradado_sin_nombre_48-43" x1="782.9" x2="782.9" y1="589.4" y2="651.1" gradientTransform="matrix(1 0 0 -1 4.3 1080.5)"/>
    <linearGradient xlink:href="#Degradado_sin_nombre_48" id="Degradado_sin_nombre_48-44" x1="503.3" x2="503.3" y1="582.7" y2="606.5" gradientTransform="matrix(1 0 0 -1 4.3 1080.5)"/>
    <linearGradient xlink:href="#Degradado_sin_nombre_48" id="Degradado_sin_nombre_48-45" x1="843.2" x2="843.2" y1="612" y2="647.4" gradientTransform="matrix(1 0 0 -1 4.3 1080.5)"/>
    <linearGradient xlink:href="#Degradado_sin_nombre_48" id="Degradado_sin_nombre_48-46" x1="1137.4" x2="1137.4" y1="693.8" y2="721.9" gradientTransform="matrix(1 0 0 -1 4.3 1080.5)"/>
    <linearGradient xlink:href="#Degradado_sin_nombre_48" id="Degradado_sin_nombre_48-47" x1="146.6" x2="146.6" y1="583.9" y2="604.7" gradientTransform="matrix(1 0 0 -1 4.3 1080.5)"/>
    <linearGradient xlink:href="#Degradado_sin_nombre_48" id="Degradado_sin_nombre_48-48" x1="214.2" x2="214.2" y1="582.7" y2="599.2" gradientTransform="matrix(1 0 0 -1 4.3 1080.5)"/>
    <style id="style2">
      .cls-1{fill:none;stroke:#037200;stroke-miterlimit:10;stroke-width:1.22px}
    </style>
  </defs>
  <g id="Cristo">
    <path id="path60" d="M582.7 225.6s-1.8-50.1 1.2-67.8c0 0 0-5-10.9-11.6s-22.4-27-22.4-27v-14.6s-1.2.6-2.4-2.4 0-11 0-11l3-1.2 3 1.8.6 7.3s1.2 6.7 2.4 6.7 8.3 20.2 25.8 24.9a6.5 6.5 0 0 0 1.7.2h2.3s-.6-1.2-.6-8.6c0-7.5 4.8-10.4 4.8-10.4 0-.6 6.6-3.5 9.1 2.5 3 7.3 0 15.9 0 15.9s2.2 2.7 16.7-18c1.8-10.4 1.5-6.5 2.1-11.3s10.3-16 10.3-16 .6-1.1 2.4 0 0 6.2 0 6.2-3 5.5-3 6.7c0 3.7.6 16.5 0 19.6s-5.4 15.8-18.1 36c-.6 25 1.2 14.6-3 72 6.6 0 4.8-1.2 6.6 0v7.4s11 4.2 13.4 9.1h4.8s.6-4.9 8.5-6.7c0 0 3 5.5-11 12.2 0 0-2.3 9.2-20 14l8 158.3c.6 0 34.5 0 45.4 4.2s14 5.5 14 8.6 1.8 8-58.8 12.2l1.2 59.8h-42.5l.6-59.2s-57.6 2.4-60-11 58.8-14 58.8-14L579 261s-15.8-2.4-20-11.6c0 0-11-1.8-11.5-11 0 0 8.4 1.8 10.9 4.3 0 0 2.4-6.7 12-8.6v-8.5Z" class="cls-1" transform="translate(.3 -3.5)"/>
    <path id="line62" d="M583 222h24.8" class="cls-1"/>
    <path id="path64" d="M608.8 154.7s-15.8 3-24.3 8" class="cls-1" transform="translate(.3 -3.5)"/>
    <path id="path66" d="M570.6 234.1s14.5-5.5 43.6-1.2" class="cls-1" transform="translate(.3 -3.5)"/>
    <path id="polyline68" d="m579.4 257.5.6-22.6h29.1l1.2 23.2" class="cls-1"/>
    <path id="path70" d="M576.6 420.4s22.5-.6 41.2-.6" class="cls-1" transform="translate(.3 -3.5)"/>
    <path id="polyline72" d="M578.1 441.9v-11.6h40l.6 11" class="cls-1"/>
    <path id="path74" d="M484 564.5s142.3 14 233.2 0l-17-30.5s-180-15.2-201.2-9.8Z" class="cls-1" transform="translate(.3 -3.5)"/>
    <path id="path76" d="m514.7 523 6.8-16.5c21.2-2.5 55.1-1.9 55.1-1.9h43a346.2 346.2 0 0 1 47.3 3l17 25 512 14v-57.2l-524.8 24.5" class="cls-1" transform="translate(.3 -3.5)"/>
    <path id="path78" fill="url(#Degradado_sin_nombre_48)" d="M500.6 526.4s30.3-3.7 83 1.2L577 566s-47.9 0-89-4.2Z" transform="translate(.3 -3.5)"/>
    <path id="path80" fill="url(#Degradado_sin_nombre_48-2)" d="M523 508s64.8-2.4 73.3-.6l-2.4 15.9s-54.5-2.5-75.7-2.5Z" transform="translate(.3 -3.5)"/>
    <path id="path82" fill="url(#Degradado_sin_nombre_48-3)" d="M590 125.4s5.5-3 6.7-3 3 0 3 1.8a3.6 3.6 0 0 1-.6 2.4l-4.9 1.9Z" transform="translate(.3 -3.5)"/>
    <path id="polygon84" fill="url(#Degradado_sin_nombre_48-4)" d="m599.1 116.1-1.3-1.2-1.2 1.2h2.5z"/>
    <path id="path86" fill="url(#Degradado_sin_nombre_48-5)" d="M592.7 116a1.8 1.8 0 0 1 2.2-.7.7.7 0 0 1 .4.2l1 1.7s-2 .4-2.4 0" transform="translate(.3 -3.5)"/>
    <path id="path88" fill="url(#Degradado_sin_nombre_48-6)" d="M597 116s.6-.7 1.8 0l-.6 1.8Z" transform="translate(.3 -3.5)"/>
    <path id="path90" fill="url(#Degradado_sin_nombre_48-7)" d="M624.2 96.4s1.2 3 3.6 1.2v16.5Z" transform="translate(.3 -3.5)"/>
    <path id="path92" fill="url(#Degradado_sin_nombre_48-8)" d="m553.3 100.7-1.8 18.9s12.1 20.1 18.8 23.8l4.2 3s-2.4-12.2 11-15.2c0 0-8-1.2-17-9.2-3-2.5-15.2-21.3-15.2-21.3Z" transform="translate(.3 -3.5)"/>
    <path id="path94" fill="url(#Degradado_sin_nombre_48-9)" d="M590 114.1a75.5 75.5 0 0 0 1 19l-4.3-2.5v-9.4a6.4 6.4 0 0 1 3.3-7.1Z" transform="translate(.3 -3.5)"/>
    <path id="path96" fill="url(#Degradado_sin_nombre_48-10)" d="M610.9 149s17-30.6 16.4-32.5c0 0 2.4 4.3-16.4 32.4Z" transform="translate(.3 -3.5)"/>
    <path id="path98" fill="url(#Degradado_sin_nombre_48-11)" d="M588.7 225.6s-.8-48.6 3.4-63.2l4.8-1.9-2.4 63Z" transform="translate(.3 -3.5)"/>
    <path id="path100" fill="url(#Degradado_sin_nombre_48-12)" d="M607.3 158.7s-5.5-1.2-8 1.8l-1.7 63h6.6s3.6-39.8 3-64.8Z" transform="translate(.3 -3.5)"/>
    <path id="path102" fill="url(#Degradado_sin_nombre_48-13)" d="m591.5 132.4 4.8 1.8 2.5-2.4s-6.7 1.2-7.3.6Z" transform="translate(.3 -3.5)"/>
    <path id="path104" fill="url(#Degradado_sin_nombre_48-14)" d="M558.8 249.7s-2.5-15.3 35.7-15.9 32.1 17.7 32.1 17.7-2.4 4.9-16.3 9.2l-1.8-22.6h-29.7l-.6 22s-12.2 0-19.4-10.4Z" transform="translate(.3 -3.5)"/>
    <path id="path106" fill="url(#Degradado_sin_nombre_48-15)" d="m588.7 238.4-.2 22.9s1.8 1.8 13.9 0v-23" transform="translate(.3 -3.5)"/>
    <path id="line108" d="M588.8 234.6v181.3" class="cls-1"/>
    <path id="line110" d="M602.7 416.9V234.6" class="cls-1"/>
    <path id="path112" d="M588.5 261.3s2.4 1.8 13.9 0" class="cls-1" transform="translate(.3 -3.5)"/>
    <path id="polygon114" fill="url(#Degradado_sin_nombre_48-16)" d="M587.5 415.9h-9.1l1.5-179.7 7 .2.6 179.5z"/>
    <path id="polygon116" fill="url(#Degradado_sin_nombre_48-17)" d="M616.6 414.7h-12.7V236.4h4.2l8.5 178.3z"/>
    <path id="path118" fill="url(#Degradado_sin_nombre_48-18)" d="M576.3 444.5V433h41.9l1.2 10.4s26.6-1.2 41.8-3.7 15.1-6 15.1-6a2.7 2.7 0 0 0-1.2-3 40.6 40.6 0 0 0-12.7-6.2c-6.7-1.8-23.6-4.3-43.6-4.3s-38.2 1.3-42.5 1.3-50.8-.8-58.4 11.5c0 0-1.5 9.2 25.7 11s23.6.6 32.7.6Z" transform="translate(.3 -3.5)"/>
    <path id="polygon120" fill="url(#Degradado_sin_nombre_48-19)" d="M619 500.8h-41.8l1.2-70.8 38.2.3 2.4 70.5z"/>
  </g>
  <path id="polygon125" fill="url(#Degradado_sin_nombre_48-21)" d="m12.2 322.1 100.1 33.1-18.1 47.1L0 385.5.5 347l11.7-24.9z"/>
  <path id="polygon127" fill="url(#Degradado_sin_nombre_48-22)" d="m466.3 386.6-1.8 17.1-75.7-17.1h77.5z"/>
  <path id="polygon129" fill="url(#Degradado_sin_nombre_48-23)" d="m953.6 428.2-48.5 32.3-4.9-27.4 53.4-4.9z"/>
  <path id="polyline131" d="m407.3 492 7.8-67.2H380l5.4-42.1h84.9l-3.7 42.1h-44.8l-6.1 67.2" class="cls-1"/>
  <path id="polyline133" d="m1173.6 487.1-28.2-71.5-4.3 1.3 28.1 70.2" class="cls-1"/>
  <path id="polygon135" d="m1095.7 424.2 107.8-19.5-23.6-55-101.8 29.9 17.6 44.6z" class="cls-1"/>
  <path id="polygon137" d="m901.7 468.8 121.9-4.9-11.6-42.8-117.5 6.1 7.2 41.6z" class="cls-1"/>
  <path id="polygon139" fill="url(#Degradado_sin_nombre_48-24)" stroke="#037200" stroke-miterlimit="10" stroke-width="1.2" d="m959.9 466.3 8.4 30.2h3.5l-9.2-30.2h-2.7z"/>
  <path id="polygon141" d="m769.5 505.8-1.1-12.6 75.2-4.3 1.6 13.4-75.7 3.5z" class="cls-1"/>
  <path id="polygon143" d="m812.7 434.6 5.5 55.8-35.2 2.2-7.3-55.6 16.4-11 9.1 2.5 11.5 6.1z" class="cls-1"/>
  <path id="line145" d="m798.3 491.3-6.2-65.3" class="cls-1"/>
  <path id="polygon147" d="m824.8 478.6 50.9-4.9-7.9-44-46.7 12.8 3.7 36.1z" class="cls-1"/>
  <path id="polygon149" d="m857.1 501.7-2.4.1h-.2l-4.5-25.7 2.3-.2 4.8 25.8z" class="cls-1"/>
  <path id="polyline151" d="M515.1 470.6h29.7l20 7.3v23.2l-19.5.3-.5-30.8" class="cls-1"/>
  <path id="path153" d="m466.4 501 26.6 3.7s3 32.5 1.2 32.5L3.4 546.8v-91l347.8 34L466.4 501v-26.9h48.4v-18.3h34.6v11l21.2 1.2v36.6" class="cls-1" transform="translate(.3 -3.5)"/>
  <path id="polygon155" d="M351.5 485.9v-11.6H380V489l-28.5-3.1z" class="cls-1"/>
  <path id="polygon157" d="m46.4 456.5 284.9 27.8.2-7.6h9.1L203 457.2l-156.6-.7z" class="cls-1"/>
  <path id="path159" fill="url(#Degradado_sin_nombre_48-25)" d="M414.5 428.6s3.7-2.4 6.1 0l-6 66.6h-7Z" transform="translate(.3 -3.5)"/>
  <path id="path161" fill="url(#Degradado_sin_nombre_48-26)" d="M1141.5 420.2s.2-2 2.6-.8 28.5 69.7 28.5 69.7h-3Z" transform="translate(.3 -3.5)"/>
  <path id="path163" fill="url(#Degradado_sin_nombre_48-27)" d="M850.3 480.6s0-1.9 1.8 0l4.2 23.8h-1.8Z" transform="translate(.3 -3.5)"/>
  <path id="rect165" fill="url(#Degradado_sin_nombre_48-28)" d="M124 506.3h24.9v34.1H124z"/>
  <path id="rect167" fill="url(#Degradado_sin_nombre_48-29)" d="M152.4 506.3h18.2v31.8h-18.2z"/>
  <path id="rect169" fill="url(#Degradado_sin_nombre_48-30)" d="M177.9 506.3h21.8v31.8h-21.8z"/>
  <path id="rect171" fill="url(#Degradado_sin_nombre_48-31)" d="M206.4 506.3H227v31.8h-20.6z"/>
  <path id="polyline173" fill="url(#Degradado_sin_nombre_48-32)" d="M233.6 506.3h41.8v30l-40 2.4-1.8-30.5"/>
  <path id="polygon175" fill="url(#Degradado_sin_nombre_48-33)" d="m281.5 506.3 16.4 1.9v29.3h-16.4v-31.2z"/>
  <path id="polygon177" fill="url(#Degradado_sin_nombre_48-34)" d="m304.5 510 13.4 1.8v25.3h-13.4V510z"/>
  <path id="polygon179" fill="url(#Degradado_sin_nombre_48-35)" d="M434.8 498.4v-.6l7.3.6v34.8h-6.7l-.6-34.8z"/>
  <path id="polygon181" fill="url(#Degradado_sin_nombre_48-36)" d="M443.9 498.4v-.6l7.3.6.6 34.8h-6.7l-1.2-34.8z"/>
  <path id="polygon183" fill="url(#Degradado_sin_nombre_48-37)" d="m888.7 503.9 26.1-1.8v27.4h-26.1v-25.6z"/>
  <path id="polygon185" fill="url(#Degradado_sin_nombre_48-38)" d="m922.7 502.1 24.2-1.3v28.7h-21.8l-2.4-27.4z"/>
  <path id="polygon187" fill="url(#Degradado_sin_nombre_48-39)" d="m954.8 502.1 13.9-1.3 3 28.7h-16.9v-27.4z"/>
  <path id="polygon189" fill="url(#Degradado_sin_nombre_48-40)" d="M977.2 500.8H999l4.9 30.6h-23.7l-3-30.6z"/>
  <path id="polygon191" fill="url(#Degradado_sin_nombre_48-41)" d="m1057.8 497.2 7.3 34.2 86 4.3-10.3-41.6-83 3.1z"/>
  <path id="polygon193" fill="url(#Degradado_sin_nombre_48-42)" d="M1157.2 496.6v-2.5l38.8-2.8v44.4h-34l-4.8-39.1z"/>
  <path id="polygon195" fill="url(#Degradado_sin_nombre_48-43)" d="m778.4 437.9 12.1-8.5 5.5 60.5-11.5 1.2-6.1-53.2z"/>
  <path id="polygon197" fill="url(#Degradado_sin_nombre_48-44)" d="M540.3 474v23.8L474.8 474h65.5z"/>
  <path id="polygon199" fill="url(#Degradado_sin_nombre_48-45)" d="m870.5 468.5-46-23.8 40-11.6 6 35.4z"/>
  <path id="polygon201" fill="url(#Degradado_sin_nombre_48-46)" d="m1172.9 358.5 16.4 28.1-95.1-3.6 78.7-24.5z"/>
  <path id="polygon203" fill="url(#Degradado_sin_nombre_48-47)" d="m124 475.8 53.9 5.5v15.3l-53.9-3.7v-17.1z"/>
  <path id="polygon205" fill="url(#Degradado_sin_nombre_48-48)" d="m193.6 481.3 49.7 4.3v11l-49.7 1.2v-16.5z"/>
  <path id="rect134" fill="none" d="M2.7 0h1200v600H2.7z"/>
</svg>
