<?xml version="1.0" encoding="UTF-8" standalone="no"?>
<svg
   data-name="Capa 1"
   viewBox="0 0 270 160"
   version="1.1"
   id="svg685"
   sodipodi:docname="logo0.svg"
   width="270"
   height="160"
   inkscape:version="1.1.2 (76b9e6a115, 2022-02-25)"
   xmlns:inkscape="http://www.inkscape.org/namespaces/inkscape"
   xmlns:sodipodi="http://sodipodi.sourceforge.net/DTD/sodipodi-0.dtd"
   xmlns="http://www.w3.org/2000/svg"
   xmlns:svg="http://www.w3.org/2000/svg">
  <defs
     id="defs689">
    <clipPath
       clipPathUnits="userSpaceOnUse"
       id="clipPath2674">
      <g
         inkscape:label="Clip"
         id="use2676">
        <path
           id="path2908"
           d="M 9.9550781,0 C 7.9549316,-0.02158203 5.7816406,0.7652344 4.4003906,2.1464844 c -1.1,1.1 -1.2011718,1.4015625 -1.2011718,3.1015625 -1e-7,1 0.2003906,2.1996093 0.4003906,2.5996093 0.6,1.1 2.1011719,3.1988278 2.7011718,3.7988278 0.3000001,0.3 1.4992188,1.6 2.6992188,3 1.2,1.4 2.200781,2.601172 2.300781,2.701172 0.4,0.4 1.798828,2.499219 1.798828,2.699219 0,0.1 0.29961,0.700391 0.59961,1.400391 1.9,2.9 3.601562,9.000781 3.601562,13.300781 0,2.5 -0.70039,6.298828 -1.40039,7.798828 -0.1,0.3 -0.500391,1.100391 -0.900391,1.900391 -1.4,2.8 -4.100391,5.199218 -5.9003906,5.199218 -0.7,0 -2.2992188,-1.498437 -3.1992188,-2.898437 -1.2,-1.8 -1.9011719,-4.900391 -1.7011718,-7.400391 C 4.5992187,34.647656 7.1,28.946875 9.5,27.546875 c 1.3,-0.8 1.500781,-2.100391 0.3007812,-2.400391 -3.1999999,-0.9 -6.6015624,1.801172 -8.6015624,6.701172 C -7.8125e-4,34.647656 0,34.946875 0,39.546875 c 0,4.6 0,4.899609 1,6.599609 1.8,3.2 3.6,4.801172 6.5,5.701172 v -0.09961 c 2.7,0.8 4.899609,0.498828 8.099609,-1.201172 2.2,-1.2 2.800782,-1.7 4.300782,-4 1.3,-2 1.798828,-2.999219 2.798828,-5.699219 0.8,-2 0.801562,-9.699609 0.101562,-12.099609 -2.3,-7.5 -3.801562,-9.901172 -10.601562,-17.201172 -2.5000002,-2.7000002 -4.0996096,-5 -4.0996096,-6 0,-2.1 1.9996096,-3.5003906 4.0996096,-2.9003906 1.1,0.4 2.300781,1.9 2.300781,3 0,0.6 1.300391,1.1003906 2.400391,0.9003906 0.5,-0.1 0.698828,-0.5 0.798828,-1.5 0.1,-1.1 -0.09844,-1.4988281 -0.898438,-2.2988281 -1.1,-1.1 -3,-2.00156253 -5.5,-2.60156252 C 10.869531,0.05273437 10.41665,0.00498047 9.9550781,0 Z M 148.67383,1.8417969 c -1.20056,-0.00803 -2.41055,0.2238281 -3.37305,0.7050781 -1.6,0.8 -5.20117,4.4007812 -5.20117,5.3007812 0,0.2250001 -0.11133,0.3925782 -0.25195,0.4628907 -0.0469,0.023437 -0.0984,0.037109 -0.14844,0.037109 -0.2,0 -0.39844,0.1003907 -0.39844,0.4003907 0,0.3 -0.40078,1.1996091 -0.80078,2.0996094 -0.7,1.6 -1.00078,2.499219 -2.30078,7.199219 -1.8,6.3 -1.5,19.500781 0.5,23.800781 0.2,0.4 0.6,1.29961 1,2.09961 0.7,1.7 3.70156,4.9 5.10156,5.5 l 0.0996,-0.09961 c 1.2,0.5 4.39961,0.5 5.59961,0 2,-0.9 3.99961,-3.2 5.59961,-6.5 0.9,-1.8 1.8,-4 2,-5 1.2,-5.3 1.80078,-8.40039 1.80078,-9.90039 0,-1.5 -0.10039,-1.700391 -0.90039,-1.900391 -2,-0.5 -2.19961,-0.199609 -3.59961,5.900391 -1.2,5.2 -2.1,7.8 -3.5,10.5 -0.9,1.725 -2.30586,3.562109 -3.24805,4.373046 -0.23554,0.202735 -0.44309,0.341822 -0.60546,0.398438 -0.0541,0.01887 -0.10274,0.0293 -0.14649,0.0293 -0.7,0 -2.60039,-2.501172 -3.90039,-5.201172 -1.7,-3.6 -2.39922,-8.200391 -2.19922,-14.400391 0.1,-2.7 0.39961,-5.998437 0.59961,-7.398437 1.2,-7.6 5.00039,-15.2015629 7.90039,-16.1015629 1.2,-0.4 2.7,1.4015625 3,3.6015625 0.4,2.9000004 0.49883,3.0000004 1.79883,3.0000004 1.1,0 1.19961,-0.101562 1.59961,-1.6015629 0.5,-2.3 -0.3,-4.7996094 -2,-6.0996094 -0.95625,-0.7875 -2.48181,-1.194751 -4.02539,-1.2050781 z M 84.300781,4.6464844 c -1.5,0 -3.301172,2.9015621 -4.201172,6.6015626 -0.5,2.3 -0.599609,2.398437 -3.099609,3.398437 -0.8,0.3 -3.599219,1.100782 -6.199219,1.800782 -4.5,1.2 -6.500781,-0.500391 -4.300781,-3.400391 1.1,-1.4 1.100781,-1.399219 0.300781,-1.699219 -1.2,-0.4 -3.001172,0.5 -3.701172,2 -1,1.8 -0.898828,2.9 0.201172,4 1.2,1.2 2.7,1.499219 6.5,1.199219 2.8,-0.2 3.9,-0.499609 7,-1.599609 0.8,-0.3 1.39961,-0.400782 1.59961,-0.300782 0.2,0.1 0.09883,1.101563 -0.201172,2.101563 -0.3,1 -0.598828,2.498828 -0.798828,3.298828 -0.2,0.8 -0.600391,4.100781 -0.900391,7.300781 -0.3,3.2 -0.700391,6.100391 -0.900391,6.400391 -0.2,0.3 -0.899609,1.798437 -1.599609,3.398437 -2.7,5.8 -6.600781,11.201172 -7.800781,10.701172 -0.7,-0.3 -0.99961,-2.800781 -0.59961,-4.800781 0.9,-4 1.301172,-5.499219 2.201172,-7.699219 0.2,-0.4 0.498438,-1.601172 0.898438,-2.701172 0.4,-1.1 0.80039,-2.299218 0.90039,-2.699218 0.5,-1.5 0.400392,-4.199219 -0.09961,-4.699219 -0.6,-0.6 -2.199609,-1.201172 -3.099609,-1.201172 -1.6,0 -4.900782,2.1 -7.300782,4.5 -3.6,3.5 -3.899218,3.999609 -6.699218,9.599609 l -2.5,5 0.199218,-2.298828 c 0.1,-1.2 0.59961,-3.5 1.09961,-5 1.6,-4.8 2.701562,-7.8 3.101562,-8.5 0.3,-0.4 0.49961,-1.799609 0.59961,-3.099609 0.2,-2.2 0.09922,-2.401563 -0.800782,-3.101563 -1.6,-1.3 -4.999609,-0.899609 -7.099609,0.900391 -1.6,1.4 -0.300781,1.999609 2.199219,1.099609 0.6,-0.2 1.30039,-0.399218 1.40039,-0.199218 0.1,0.2 -0.20039,1.70039 -0.90039,3.40039 -0.7,1.7 -1.198828,3.3 -1.298828,3.5 -1.1,3.7 -4.900391,11.39961 -6.400391,12.59961 -0.4,0.3 -0.6,0.299609 -1,-0.400391 -1.3,-2.1 -1.5,-3.299219 -1.5,-8.699219 0.1,-4.4 0.200391,-6.000781 0.900391,-8.800781 0.4,-1.9 0.699609,-3.7 0.599609,-4 -0.8,-2.1 -3.800781,-0.199219 -3.800781,2.300781 0,0.6 -0.09883,0.7 -0.798828,0.5 -1.4,-0.5 -3.601172,-0.20039 -5.201172,0.59961 -4,2.1 -7.5,9.599609 -7.5,16.099609 0,3.6 0.90039,4.901172 3.40039,5.201172 2.8,0.3 4.4,-1.100391 7,-6.400391 0.7,-1.3 1.3,-2.40039 1.5,-2.40039 0.2,0 0.300782,-3.92e-4 0.300782,0.09961 0,0.1 0.20039,1.101172 0.40039,2.201172 1,5.4 4.498828,7.798828 7.798828,5.298828 l 1.201172,-1 -0.201172,1 c -0.1,0.5 -3.9e-4,2.700781 0.09961,4.800781 0.4,3.4 0.500781,3.89961 1.300781,4.59961 l -0.599609,-0.09961 c 1.1,1 2.70039,1.098828 3.40039,0.298828 0.3,-0.3 1.299219,-2.799609 2.199219,-5.599609 1.6,-4.7 5.099609,-12.4 6.099609,-13.5 0.2,-0.2 0.69961,-0.9 1.09961,-1.5 1,-1.5 4.501562,-5.099219 5.601562,-5.699219 l 1,-0.5 L 65,30.146484 c -0.3,1.3 -0.800391,2.401172 -1.400391,3.701172 -0.1,0.3 -0.4,1.098828 -0.5,1.798828 -0.1,0.7 -0.4,1.6 -0.5,2 -0.1,0.4 -0.499218,1.200782 -0.699218,1.800782 -0.2,0.6 -0.49961,2.899218 -0.59961,5.199218 -0.1,3.5 0,4.4 0.5,5.5 1.1,2.4 3.599219,3.001172 6.199219,1.701172 1.1,-0.6 1.7,-1.10039 3.5,-3.40039 0.7,-0.9 2.799609,-4.4 3.599609,-6 0.5,-1 0.9,-1.69961 1,-1.59961 0.1,0.1 0.3,1.398828 0.5,2.798828 0.6,4.4 2.501172,9.100782 4.201172,10.300782 2.6,1.9 5.8,1.60039 8,-0.59961 1.1,-1.1 2.799219,-4.199609 3.699219,-6.599609 0.3,-0.7 0.300391,-0.701563 0.900391,-0.101563 0.9,0.9 3.099609,1.100391 4.599609,0.400391 1.2,-0.6 2.68935,-3.012422 3.09961,-3.699219 0.11511,-0.192706 0.16605,-0.321541 0.30078,-0.5 0.22394,-0.296625 0.80039,-1.10039 1.40039,-2.40039 0.6,-1.3 1.19883,-2.1 1.29883,-2 0.1,0.1 0.39961,1.20039 0.59961,2.40039 0.5,2.5 1.7,4.899219 3,5.699219 0.5,0.3 1.50078,0.599609 2.30078,0.599609 2.1,0 3.69922,-1.898437 6.19922,-6.898437 3,-6 3.5,-7.3 3.5,-8.5 0,-0.9 -0.0984,-1.101563 -0.89844,-1.101563 -0.7,0 -1.00156,0.301172 -1.60156,1.701172 -0.4,0.9 -1.19844,2.799219 -1.89844,4.199219 -0.7,1.4 -1.50078,3.100781 -1.80078,3.800781 -0.7,1.5 -2.90078,4.59961 -3.30078,4.59961 -0.1,0 -0.59961,-0.800782 -1.09961,-1.800782 -0.7,-1.5 -0.9,-2.6 -1,-6 -0.1,-3.9 0.1,-6.998828 1,-10.798828 0.8,-3.7 0.80038,-3.701172 -0.0996,-4.201172 -0.7,-0.4 -0.99961,-0.4 -1.59961,0 -0.8,0.6 -1.5,1.800391 -1.5,2.900391 0,0.6 -0.10078,0.7 -0.80078,0.5 -2.5,-0.8 -5.99961,0.4 -8.09961,3 -1.5,1.8 -3.399609,5.800781 -4.099609,8.800781 -0.3,1.3 -0.700782,2.7 -0.800782,3 -0.2,0.3 -0.298828,0.599219 -0.298828,0.699219 0,0.1 -0.301562,0.700391 -0.601562,1.400391 -0.3,0.7 -0.999219,2.8 -1.699219,4.5 -0.7,1.7 -1.3,3.200781 -1.5,3.300781 -0.2,0.1 -0.300781,0.3 -0.300781,0.5 0,0.7 -1.4,1.799609 -2,1.599609 -1.4,-0.4 -3.198828,-4.800781 -3.798828,-9.300781 -0.4,-2.5 -0.300392,-13.399609 0.09961,-16.599609 0.2,-1.7 0.600391,-4.500782 0.900391,-6.300782 0.3,-1.7 0.599218,-3.698828 0.699218,-4.298828 0.2,-1.3 0.700782,-1.600781 5.800782,-3.300781 5.7,-2 10.600388,-2.9003906 14.900388,-2.9003906 4.9,0 6.9,0.7015626 9.5,3.1015626 1.4,1.3 2.59883,1.498437 3.29883,0.398437 0.8,-1.3 -2.49883,-3.7988278 -6.29883,-4.7988278 -1.7,-0.4999998 -3.40156,-0.5003906 -8.10156,-0.4003906 -3.200002,0.1 -6.498828,0.2996094 -7.298828,0.5996094 -0.8,0.3 -2.400391,0.7 -3.400391,1 -1,0.3 -3.000391,0.900391 -4.400391,1.400391 -1.4,0.5 -2.499609,0.90039 -2.599609,0.90039 -0.4,0 0.299609,-3.900781 1.099609,-5.800781 0.3,-0.7 -0.698828,-1.4003906 -1.798828,-1.4003906 z M 189.82227,23.320312 c -1.1813,0.02603 -2.0918,1.727735 -4.12305,6.927735 -2.3,6 -5.29961,12.399609 -6.09961,13.099609 -0.7,0.6 -1,-1.899609 -0.5,-6.099609 0.4,-3.5 0.70078,-5.001563 1.80078,-8.601563 0.9,-2.9 0,-4.498437 -2,-3.398437 -1.1,0.6 -2.00078,2.599609 -3.30078,7.099609 -0.8,3.1 -5.09961,11.89961 -8.59961,18.09961 l -1.90039,3.40039 L 165,51.546875 c -0.1,-1.3 0.10078,-3.000391 0.30078,-3.900391 0.6,-2.3 1.49883,-5.098437 1.79883,-5.898437 0.6,-1.5 1.40078,-4.000781 1.80078,-5.800781 0.6,-2.6 -0.40078,-4.09961 -3.30078,-5.09961 -0.8,-0.2 -1.79883,-0.9 -2.29883,-1.5 -0.8,-0.9 -0.9,-1.10039 -0.5,-2.40039 0.6,-1.8 0.0992,-2.800782 -1.30078,-2.800782 -1.6,0 -2.3,0.8 -2.5,3 -0.1,1.1 -3.9e-4,2.400391 0.0996,2.900391 0.3,1.4 1.89961,2.701172 3.09961,2.701172 3.2,0 3.10039,1.3 -0.0996,10 -0.9,2.5 -1.09883,3.699219 -1.29883,7.199219 -0.2,4.6 0.0988,5.70039 1.79883,6.40039 l -0.29883,-0.201172 c 1.1,0.5 3.7,0.100391 4.5,-0.599609 1,-1 2.49961,-3.499219 5.09961,-8.699219 2.1,-4.2 2.40039,-4.6 2.40039,-3.5 0,3.4 2.79922,5.199219 5.69922,3.699219 0.9,-0.5 3.59961,-3.999219 3.59961,-4.699219 0,-0.1 0.4,-1.20039 1,-2.40039 1.4,-3 2.1,-4.59961 2.5,-5.59961 0.3,-0.7 0.39961,-0.301172 0.59961,1.798828 0.5,5.1 1.7,8.300782 3.5,9.300782 1.3,0.7 3.20039,0.1 4.90039,-1.5 0.8,-0.8 1.5,-1.600782 1.5,-1.800782 0,-0.2 0.40117,-0.798828 0.70117,-1.298828 0.3,-0.5 0.79844,-1.300781 0.89844,-1.800781 0.1,-0.5 0.50039,-1.598828 0.90039,-2.298828 0.4,-0.7 0.89961,-2.1 1.09961,-3 0.4,-1.7 0.80039,-2.101563 1.90039,-2.101563 0.4,0 2.10117,-0.599218 3.70117,-1.199218 1.6,-0.6 2.89844,-1.09961 2.89844,-1.09961 0,0 -0.7,0.799219 -1.5,1.699219 -2.3,2.4 -3.69922,4.100391 -5.69922,6.900391 -1,1.3 -1.99922,2.7 -2.19922,3 -0.9,1.1 -4.50156,7.099609 -6.10156,10.099609 -1,2 -1.6,3.499609 -1.5,4.099609 0.1,0.9 0.30156,1.001563 1.60156,1.101563 1.6,0.1 3.39844,-0.900391 3.39844,-1.900391 0,-0.3 0.20039,-0.5 0.40039,-0.5 0.2,0 0.40039,-0.2 0.40039,-0.5 0,-0.3 0.20078,-0.499609 0.30078,-0.599609 0.3,-0.1 0.89961,-1.1 2.09961,-3.5 0.7,-1.3 2.5,-3.001172 3,-2.701172 0.2,0.2 0.40039,0.500391 0.40039,0.900391 0,1 2.39961,5.600781 3.59961,6.800781 0.6,0.6 1.5,1.198828 2,1.298828 1.5,0.4 3.90039,-0.1 4.90039,-1 1.9,-1.7 2.79883,-5.298828 1.29883,-5.298828 -0.8,0 -1.19961,0.398828 -2.09961,1.798828 -1.1,1.7 -2.1,2.300781 -3,1.800781 -0.4,-0.2 -0.69922,-0.60039 -0.69922,-0.90039 0,-0.3 -0.20078,-0.49961 -0.30078,-0.59961 -0.4,-0.1 -1.29961,-2.100781 -2.09961,-4.300781 -0.7,-1.8 -1.30117,-2.5 -2.70117,-3 l -0.89844,-0.298828 1.59961,-2.5 c 1.5,-2.4 3.29961,-4.900781 4.09961,-5.800781 0.2,-0.3 1.09961,-1.3 2.09961,-2.5 1,-1.2 2.00117,-2.3 2.20117,-2.5 2.6,-2.8 2.99922,-4.900391 1.19922,-5.900391 -0.9,-0.5 -1.20039,-0.399219 -2.90039,0.300781 -3.7,1.6 -5.19961,2.200391 -6.59961,2.900391 -1.6,0.8 -4.10039,1.798828 -4.40039,1.798828 -0.1,0 -3.9e-4,-0.499609 0.0996,-1.099609 0.2,-1 0.20117,-1.09961 -0.79883,-1.09961 -1.6,0 -2.90039,1.199219 -2.90039,2.699219 0,0.6 0.10078,1.201172 0.30078,1.201172 0.6,0 0.69922,1.099219 0.19922,2.199219 -0.3,0.6 -0.5,1.20039 -0.5,1.40039 0,0.6 -2.80078,5.998828 -3.80078,7.298828 -1.4,1.8 -1.5,1.501172 -2.5,-4.798828 -0.4,-2.7 -0.49883,-4.8 -0.29883,-8.5 l 0.19922,-4.90039 -0.90039,-0.400391 c -0.31875,-0.15 -0.60435,-0.232568 -0.87695,-0.226563 z m -86.42188,4.027344 c 0.4,0 0.89883,0.2 1.29883,0.5 0.6,0.5 0.60117,0.6 -0.29883,2.5 -0.5,1.1 -0.90039,2.099219 -0.90039,2.199219 0,0.5 -4.299609,9 -5.099609,10 v -0.09961 c -0.2,0.2 -0.500782,0.699609 -0.800782,1.099609 -0.5,0.7 -0.598828,0.699608 -0.798828,0.09961 -0.3,-0.9 0.09961,-5.998828 0.59961,-7.298828 0.3,-0.5 0.599218,-1.301172 0.699218,-1.701172 0.7,-1.8 1.797295,-3.527837 1.900391,-3.699218 0.30078,-0.5 0.15157,-0.23974 0.30078,-0.5 0.27108,-0.472816 2.29961,-3.09961 3.09961,-3.09961 z m -68.898437,0.05664 c 0.381275,-0.01675 0.759766,0.137109 1.197266,0.443359 0.6,0.4 0.60039,0.600391 -0.09961,2.400391 -0.4,1.1 -1.799218,4.2 -3.199218,7 -1.1145,1.518128 -2.123981,4.189652 -3.400391,6 -0.8,0.9 -0.899609,0.998437 -1.099609,0.398437 -0.3,-0.8 0.09961,-5.499609 0.599609,-7.099609 0.7,-2.2 3.400391,-7.199219 4.400391,-8.199219 0.61875,-0.61875 1.111352,-0.921826 1.601562,-0.943359 z"
           clip-path="none" />
      </g>
    </clipPath>
    <clipPath
       clipPathUnits="userSpaceOnUse"
       id="clipPath2956">
      <g
         inkscape:label="Clip"
         id="use2958"
         style="display:inline">
        <path
           id="path3567"
           style="display:inline"
           d="m 84.300781,4.6464844 c -1.5,0 -3.301172,2.9015619 -4.201172,6.6015626 -0.5,2.3 -0.599609,2.398437 -3.099609,3.398437 -0.8,0.3 -3.599219,1.100782 -6.199219,1.800782 -4.5,1.2 -6.500781,-0.500391 -4.300781,-3.400391 1.1,-1.4 1.100781,-1.399219 0.300781,-1.699219 -1.2,-0.4 -3.001172,0.5 -3.701172,2 -1,1.8 -0.898828,2.9 0.201172,4 1.2,1.2 2.7,1.499219 6.5,1.199219 2.8,-0.2 3.9,-0.499609 7,-1.599609 0.8,-0.3 1.39961,-0.400782 1.59961,-0.300782 0.2,0.1 0.09883,1.101563 -0.201172,2.101563 -0.3,1 -0.598828,2.498828 -0.798828,3.298828 -0.2,0.8 -0.600391,4.100781 -0.900391,7.300781 -0.3,3.2 -0.700391,6.100391 -0.900391,6.400391 -0.2,0.3 -0.899609,1.798437 -1.599609,3.398437 -2.7,5.8 -6.600781,11.201172 -7.800781,10.701172 -0.7,-0.3 -0.99961,-2.800781 -0.59961,-4.800781 0.9,-4 1.301172,-5.499219 2.201172,-7.699219 0.2,-0.4 0.498438,-1.601172 0.898438,-2.701172 0.4,-1.1 0.80039,-2.299218 0.90039,-2.699218 0.5,-1.5 0.400394,-4.199219 -0.09961,-4.699219 -0.6,-0.6 -2.199609,-1.201172 -3.099609,-1.201172 -1.6,0 -4.900782,2.1 -7.300782,4.5 -3.6,3.5 -3.899218,3.999609 -6.699218,9.599609 l -2.5,5 0.199218,-2.298828 c 0.1,-1.2 0.59961,-3.5 1.09961,-5 1.6,-4.8 2.701562,-7.8 3.101562,-8.5 0.3,-0.4 0.49961,-1.799609 0.59961,-3.099609 0.2,-2.2 0.09922,-2.401563 -0.800782,-3.101563 -1.6,-1.3 -4.999609,-0.899609 -7.099609,0.900391 -1.6,1.4 -0.300781,1.999609 2.199219,1.099609 0.6,-0.2 1.30039,-0.399218 1.40039,-0.199218 0.1,0.2 -0.20039,1.70039 -0.90039,3.40039 -0.7,1.7 -1.198828,3.3 -1.298828,3.5 -1.1,3.7 -4.900391,11.39961 -6.400391,12.59961 -0.4,0.3 -0.6,0.299609 -1,-0.400391 -1.3,-2.1 -1.5,-3.299219 -1.5,-8.699219 0.1,-4.4 0.200391,-6.000781 0.900391,-8.800781 0.4,-1.9 0.699609,-3.7 0.599609,-4 -0.8,-2.1 -3.800781,-0.199219 -3.800781,2.300781 0,0.6 -0.09883,0.7 -0.798828,0.5 -1.4,-0.5 -3.601172,-0.20039 -5.201172,0.59961 -4,2.1 -7.5,9.599609 -7.5,16.099609 0,3.6 0.90039,4.901172 3.40039,5.201172 2.8,0.3 4.4,-1.100391 7,-6.400391 0.7,-1.3 1.3,-2.40039 1.5,-2.40039 0.2,0 0.300782,-3.94e-4 0.300782,0.09961 0,0.1 0.20039,1.101172 0.40039,2.201172 1,5.4 4.498828,7.798828 7.798828,5.298828 l 1.201172,-1 -0.201172,1 c -0.1,0.5 -3.9e-4,2.700781 0.09961,4.800781 0.4,3.4 0.500781,3.89961 1.300781,4.59961 l -0.599609,-0.09961 c 1.1,1 2.70039,1.098828 3.40039,0.298828 0.3,-0.3 1.299219,-2.799609 2.199219,-5.599609 1.6,-4.7 5.099609,-12.4 6.099609,-13.5 0.2,-0.2 0.69961,-0.9 1.09961,-1.5 1,-1.5 4.501562,-5.099219 5.601562,-5.699219 l 1,-0.5 L 65,30.146484 c -0.3,1.3 -0.800391,2.401172 -1.400391,3.701172 -0.1,0.3 -0.4,1.098828 -0.5,1.798828 -0.1,0.7 -0.4,1.6 -0.5,2 -0.1,0.4 -0.499218,1.200782 -0.699218,1.800782 -0.2,0.6 -0.49961,2.899218 -0.59961,5.199218 -0.1,3.5 0,4.4 0.5,5.5 1.1,2.4 3.599219,3.001172 6.199219,1.701172 1.1,-0.6 1.7,-1.10039 3.5,-3.40039 0.7,-0.9 2.799609,-4.4 3.599609,-6 0.5,-1 0.9,-1.69961 1,-1.59961 0.1,0.1 0.3,1.398828 0.5,2.798828 0.6,4.4 2.501172,9.100782 4.201172,10.300782 2.6,1.9 5.8,1.60039 8,-0.59961 1.1,-1.1 2.799219,-4.199609 3.699219,-6.599609 0.3,-0.7 0.300391,-0.701563 0.900391,-0.101563 0.9,0.9 3.099609,1.100391 4.599609,0.400391 1.2,-0.6 2.68935,-3.012422 3.09961,-3.699219 0.11511,-0.192706 0.16605,-0.321541 0.30078,-0.5 0.22394,-0.296625 0.80039,-1.10039 1.40039,-2.40039 0.6,-1.3 1.19883,-2.1 1.29883,-2 0.1,0.1 0.39961,1.20039 0.59961,2.40039 0.5,2.5 1.7,4.899219 3,5.699219 0.5,0.3 1.50078,0.599609 2.30078,0.599609 2.1,0 3.69922,-1.898437 6.19922,-6.898437 3,-6 3.5,-7.3 3.5,-8.5 0,-0.9 -0.0984,-1.101563 -0.89844,-1.101563 -0.7,0 -1.00156,0.301172 -1.60156,1.701172 -0.4,0.9 -1.19844,2.799219 -1.89844,4.199219 -0.7,1.4 -1.50078,3.100781 -1.80078,3.800781 -0.7,1.5 -2.90078,4.59961 -3.30078,4.59961 -0.1,0 -0.59961,-0.800782 -1.09961,-1.800782 -0.7,-1.5 -0.9,-2.6 -1,-6 -0.1,-3.9 0.1,-6.998828 1,-10.798828 0.8,-3.7 0.80036,-3.701172 -0.0996,-4.201172 -0.7,-0.4 -0.99961,-0.4 -1.59961,0 -0.8,0.6 -1.5,1.800391 -1.5,2.900391 0,0.6 -0.10078,0.7 -0.80078,0.5 -2.5,-0.8 -5.99961,0.4 -8.09961,3 -1.5,1.8 -3.399609,5.800781 -4.099609,8.800781 -0.3,1.3 -0.700782,2.7 -0.800782,3 -0.2,0.3 -0.298828,0.599219 -0.298828,0.699219 0,0.1 -0.301562,0.700391 -0.601562,1.400391 -0.3,0.7 -0.999219,2.8 -1.699219,4.5 -0.7,1.7 -1.3,3.200781 -1.5,3.300781 -0.2,0.1 -0.300781,0.3 -0.300781,0.5 0,0.7 -1.4,1.799609 -2,1.599609 -1.4,-0.4 -3.198828,-4.800781 -3.798828,-9.300781 -0.4,-2.5 -0.300394,-13.399609 0.09961,-16.599609 0.2,-1.7 0.600391,-4.500782 0.900391,-6.300782 0.3,-1.7 0.599218,-3.698828 0.699218,-4.298828 0.2,-1.3 0.700782,-1.600781 5.800782,-3.300781 5.7,-2 10.600388,-2.9003906 14.900388,-2.9003906 4.9,0 6.9,0.7015626 9.5,3.1015626 1.4,1.3 2.59883,1.498437 3.29883,0.398437 0.8,-1.3 -2.49883,-3.7988278 -6.29883,-4.7988278 -1.7,-0.4999998 -3.40156,-0.5003906 -8.10156,-0.4003906 -3.200002,0.1 -6.498828,0.2996094 -7.298828,0.5996094 -0.8,0.3 -2.400391,0.7 -3.400391,1 -1,0.3 -3.000391,0.900391 -4.400391,1.400391 -1.4,0.5 -2.499609,0.90039 -2.599609,0.90039 -0.4,0 0.299609,-3.900781 1.099609,-5.800781 0.3,-0.7 -0.698828,-1.4003906 -1.798828,-1.4003906 z M 103.40039,27.347656 c 0.4,0 0.89883,0.2 1.29883,0.5 0.6,0.5 0.60117,0.6 -0.29883,2.5 -0.5,1.1 -0.90039,2.099219 -0.90039,2.199219 0,0.5 -4.299609,9 -5.099609,10 v -0.09961 c -0.2,0.2 -0.500782,0.699609 -0.800782,1.099609 -0.5,0.7 -0.598828,0.699606 -0.798828,0.09961 -0.3,-0.9 0.09961,-5.998828 0.59961,-7.298828 0.3,-0.5 0.599218,-1.301172 0.699218,-1.701172 0.7,-1.8 1.797295,-3.527837 1.900391,-3.699218 0.30078,-0.5 0.15157,-0.23974 0.30078,-0.5 0.27108,-0.472816 2.29961,-3.09961 3.09961,-3.09961 z m -68.898437,0.05664 c 0.381275,-0.01675 0.759766,0.137109 1.197266,0.443359 0.6,0.4 0.60039,0.600391 -0.09961,2.400391 -0.4,1.1 -1.799218,4.2 -3.199218,7 -1.1145,1.518128 -2.123981,4.189652 -3.400391,6 -0.8,0.9 -0.899609,0.998437 -1.099609,0.398437 -0.3,-0.8 0.09961,-5.499609 0.599609,-7.099609 0.7,-2.2 3.400391,-7.199219 4.400391,-8.199219 0.61875,-0.61875 1.111352,-0.921826 1.601562,-0.943359 z" />
        <path
           style="display:inline"
           d="m 189.82227,23.320312 c -1.1813,0.02603 -2.0918,1.727735 -4.12305,6.927735 -2.3,6 -5.29961,12.399609 -6.09961,13.099609 -0.7,0.6 -1,-1.899609 -0.5,-6.099609 0.4,-3.5 0.70078,-5.001563 1.80078,-8.601563 0.9,-2.9 0,-4.498437 -2,-3.398437 -1.1,0.6 -2.00078,2.599609 -3.30078,7.099609 -0.8,3.1 -5.09961,11.89961 -8.59961,18.09961 l -1.90039,3.40039 L 165,51.546875 c -0.1,-1.3 0.10078,-3.000391 0.30078,-3.900391 0.6,-2.3 1.49883,-5.098437 1.79883,-5.898437 0.6,-1.5 1.40078,-4.000781 1.80078,-5.800781 0.6,-2.6 -0.40078,-4.09961 -3.30078,-5.09961 -0.8,-0.2 -1.79883,-0.9 -2.29883,-1.5 -0.8,-0.9 -0.9,-1.10039 -0.5,-2.40039 0.6,-1.8 0.0992,-2.800782 -1.30078,-2.800782 -1.6,0 -2.3,0.8 -2.5,3 -0.1,1.1 -3.9e-4,2.400391 0.0996,2.900391 0.3,1.4 1.89961,2.701172 3.09961,2.701172 3.2,0 3.10039,1.3 -0.0996,10 -0.9,2.5 -1.09883,3.699219 -1.29883,7.199219 -0.2,4.6 0.0988,5.70039 1.79883,6.40039 l -0.29883,-0.201172 c 1.1,0.5 3.7,0.100391 4.5,-0.599609 1,-1 2.49961,-3.499219 5.09961,-8.699219 2.1,-4.2 2.40039,-4.6 2.40039,-3.5 0,3.4 2.79922,5.199219 5.69922,3.699219 0.9,-0.5 3.59961,-3.999219 3.59961,-4.699219 0,-0.1 0.4,-1.20039 1,-2.40039 1.4,-3 2.1,-4.59961 2.5,-5.59961 0.3,-0.7 0.39961,-0.301172 0.59961,1.798828 0.5,5.1 1.7,8.300782 3.5,9.300782 1.3,0.7 3.20039,0.1 4.90039,-1.5 0.8,-0.8 1.5,-1.600782 1.5,-1.800782 0,-0.2 0.40117,-0.798828 0.70117,-1.298828 0.3,-0.5 0.79844,-1.300781 0.89844,-1.800781 0.1,-0.5 0.50039,-1.598828 0.90039,-2.298828 0.4,-0.7 0.89961,-2.1 1.09961,-3 0.4,-1.7 0.80039,-2.101563 1.90039,-2.101563 0.4,0 2.10117,-0.599218 3.70117,-1.199218 1.6,-0.6 2.89844,-1.09961 2.89844,-1.09961 0,0 -0.7,0.799219 -1.5,1.699219 -2.3,2.4 -3.69922,4.100391 -5.69922,6.900391 -1,1.3 -1.99922,2.7 -2.19922,3 -0.9,1.1 -4.50156,7.099609 -6.10156,10.099609 -1,2 -1.6,3.499609 -1.5,4.099609 0.1,0.9 0.30156,1.001563 1.60156,1.101563 1.6,0.1 3.39844,-0.900391 3.39844,-1.900391 0,-0.3 0.20039,-0.5 0.40039,-0.5 0.2,0 0.40039,-0.2 0.40039,-0.5 0,-0.3 0.20078,-0.499609 0.30078,-0.599609 0.3,-0.1 0.89961,-1.1 2.09961,-3.5 0.7,-1.3 2.5,-3.001172 3,-2.701172 0.2,0.2 0.40039,0.500391 0.40039,0.900391 0,1 2.39961,5.600781 3.59961,6.800781 0.6,0.6 1.5,1.198828 2,1.298828 1.5,0.4 3.90039,-0.1 4.90039,-1 1.9,-1.7 2.79883,-5.298828 1.29883,-5.298828 -0.8,0 -1.19961,0.398828 -2.09961,1.798828 -1.1,1.7 -2.1,2.300781 -3,1.800781 -0.4,-0.2 -0.69922,-0.60039 -0.69922,-0.90039 0,-0.3 -0.20078,-0.49961 -0.30078,-0.59961 -0.4,-0.1 -1.29961,-2.100781 -2.09961,-4.300781 -0.7,-1.8 -1.30117,-2.5 -2.70117,-3 l -0.89844,-0.298828 1.59961,-2.5 c 1.5,-2.4 3.29961,-4.900781 4.09961,-5.800781 0.2,-0.3 1.09961,-1.3 2.09961,-2.5 1,-1.2 2.00117,-2.3 2.20117,-2.5 2.6,-2.8 2.99922,-4.900391 1.19922,-5.900391 -0.9,-0.5 -1.20039,-0.399219 -2.90039,0.300781 -3.7,1.6 -5.19961,2.200391 -6.59961,2.900391 -1.6,0.8 -4.10039,1.798828 -4.40039,1.798828 -0.1,0 -3.9e-4,-0.499609 0.0996,-1.099609 0.2,-1 0.20117,-1.09961 -0.79883,-1.09961 -1.6,0 -2.90039,1.199219 -2.90039,2.699219 0,0.6 0.10078,1.201172 0.30078,1.201172 0.6,0 0.69922,1.099219 0.19922,2.199219 -0.3,0.6 -0.5,1.20039 -0.5,1.40039 0,0.6 -2.80078,5.998828 -3.80078,7.298828 -1.4,1.8 -1.5,1.501172 -2.5,-4.798828 -0.4,-2.7 -0.49883,-4.8 -0.29883,-8.5 l 0.19922,-4.90039 -0.90039,-0.400391 c -0.31875,-0.15 -0.60435,-0.232568 -0.87695,-0.226563 z"
           id="path3569" />
        <path
           style="display:inline"
           d="m 148.67383,1.8417969 c -1.20056,-0.00803 -2.41055,0.2238281 -3.37305,0.7050781 -1.6,0.8 -5.20117,4.4007812 -5.20117,5.3007812 0,0.2250001 -0.11133,0.3925782 -0.25195,0.4628907 -0.0469,0.023437 -0.0984,0.037109 -0.14844,0.037109 -0.2,0 -0.39844,0.1003907 -0.39844,0.4003907 0,0.3 -0.40078,1.1996091 -0.80078,2.0996094 -0.7,1.6 -1.00078,2.499219 -2.30078,7.199219 -1.8,6.3 -1.5,19.500781 0.5,23.800781 0.2,0.4 0.6,1.29961 1,2.09961 0.7,1.7 3.70156,4.9 5.10156,5.5 l 0.0996,-0.09961 c 1.2,0.5 4.39961,0.5 5.59961,0 2,-0.9 3.99961,-3.2 5.59961,-6.5 0.9,-1.8 1.8,-4 2,-5 1.2,-5.3 1.80078,-8.40039 1.80078,-9.90039 0,-1.5 -0.10039,-1.700391 -0.90039,-1.900391 -2,-0.5 -2.19961,-0.199609 -3.59961,5.900391 -1.2,5.2 -2.1,7.8 -3.5,10.5 -0.9,1.725 -2.30586,3.562109 -3.24805,4.373046 -0.23554,0.202735 -0.44309,0.341822 -0.60546,0.398438 -0.0541,0.01887 -0.10274,0.0293 -0.14649,0.0293 -0.7,0 -2.60039,-2.501172 -3.90039,-5.201172 -1.7,-3.6 -2.39922,-8.200391 -2.19922,-14.400391 0.1,-2.7 0.39961,-5.998437 0.59961,-7.398437 1.2,-7.6 5.00039,-15.2015629 7.90039,-16.1015629 1.2,-0.4 2.7,1.4015625 3,3.6015625 0.4,2.9000004 0.49883,3.0000004 1.79883,3.0000004 1.1,0 1.19961,-0.101562 1.59961,-1.6015629 0.5,-2.3 -0.3,-4.7996094 -2,-6.0996094 -0.95625,-0.7875 -2.48181,-1.194751 -4.02539,-1.2050781 z"
           id="path3571" />
        <path
           style="display:inline"
           d="M 9.9550781,0 C 7.9549316,-0.02158203 5.7816406,0.7652344 4.4003906,2.1464844 c -1.1,1.1 -1.2011718,1.4015625 -1.2011718,3.1015625 -1e-7,1 0.2003906,2.1996093 0.4003906,2.5996093 0.6,1.1 2.1011719,3.1988278 2.7011718,3.7988278 0.3000001,0.3 1.4992188,1.6 2.6992188,3 1.2,1.4 2.200781,2.601172 2.300781,2.701172 0.4,0.4 1.798828,2.499219 1.798828,2.699219 0,0.1 0.29961,0.700391 0.59961,1.400391 1.9,2.9 3.601562,9.000781 3.601562,13.300781 0,2.5 -0.70039,6.298828 -1.40039,7.798828 -0.1,0.3 -0.500391,1.100391 -0.900391,1.900391 -1.4,2.8 -4.100391,5.199218 -5.9003906,5.199218 -0.7,0 -2.2992188,-1.498437 -3.1992188,-2.898437 -1.2,-1.8 -1.9011719,-4.900391 -1.7011718,-7.400391 C 4.5992187,34.647656 7.1,28.946875 9.5,27.546875 c 1.3,-0.8 1.500781,-2.100391 0.3007812,-2.400391 -3.1999999,-0.9 -6.6015624,1.801172 -8.6015624,6.701172 C -7.8125e-4,34.647656 0,34.946875 0,39.546875 c 0,4.6 0,4.899609 1,6.599609 1.8,3.2 3.6,4.801172 6.5,5.701172 v -0.09961 c 2.7,0.8 4.899609,0.498828 8.099609,-1.201172 2.2,-1.2 2.800782,-1.7 4.300782,-4 1.3,-2 1.798828,-2.999219 2.798828,-5.699219 0.8,-2 0.801562,-9.699609 0.101562,-12.099609 -2.3,-7.5 -3.801562,-9.901172 -10.601562,-17.201172 -2.5000002,-2.7000002 -4.0996096,-5 -4.0996096,-6 0,-2.1 1.9996096,-3.5003906 4.0996096,-2.9003906 1.1,0.4 2.300781,1.9 2.300781,3 0,0.6 1.300391,1.1003906 2.400391,0.9003906 0.5,-0.1 0.698828,-0.5 0.798828,-1.5 0.1,-1.1 -0.09844,-1.4988281 -0.898438,-2.2988281 -1.1,-1.1 -3,-2.00156253 -5.5,-2.60156252 C 10.869531,0.05273437 10.41665,0.00498047 9.9550781,0 Z"
           id="path3573" />
      </g>
    </clipPath>
  </defs>
  <sodipodi:namedview
     id="namedview687"
     pagecolor="#ffffff"
     bordercolor="#666666"
     borderopacity="1.0"
     inkscape:pageshadow="2"
     inkscape:pageopacity="0"
     inkscape:pagecheckerboard="true"
     showgrid="false"
     fit-margin-top="0"
     fit-margin-left="0"
     fit-margin-right="0"
     fit-margin-bottom="0"
     inkscape:zoom="2.8284271"
     inkscape:cx="128.87021"
     inkscape:cy="62.04862"
     inkscape:window-width="1920"
     inkscape:window-height="1016"
     inkscape:window-x="0"
     inkscape:window-y="0"
     inkscape:window-maximized="1"
     inkscape:current-layer="svg685"
     scale-x="1"
     viewbox-width="270"
     inkscape:snap-page="true" />
  <path
     id="path3278"
     style="display:inline;fill:#ffff00;stroke-width:1.22625"
     d="m 105.46135,51.626182 c -1.83938,0 -4.04807,3.558051 -5.15172,8.09522 -0.61311,2.820382 -0.73525,2.941092 -3.800899,4.167356 -0.981003,0.367881 -4.413572,1.349835 -7.60184,2.208215 -5.518135,1.471501 -7.971609,-0.613594 -5.273849,-4.169739 1.348881,-1.716761 1.349826,-1.715808 0.368838,-2.083689 -1.47151,-0.4905 -3.680224,0.613117 -4.53861,2.452499 -1.226234,2.207262 -1.102184,3.556169 0.246652,4.90505 1.471525,1.471501 3.310899,1.838428 7.970662,1.470547 3.43353,-0.245387 4.78241,-0.612668 8.583816,-1.961548 0.981003,-0.367856 1.716257,-0.491454 1.96152,-0.368835 0.24539,0.122688 0.12119,1.350814 -0.246641,2.577076 -0.367878,1.226237 -0.734307,3.064188 -0.979568,4.045187 -0.245146,0.981026 -0.736214,5.028623 -1.104091,8.952648 -0.367892,3.924024 -0.858859,7.480645 -1.10412,7.848527 -0.24539,0.367881 -1.103145,2.205331 -1.961532,4.167355 -3.310898,7.112299 -8.094269,13.735509 -9.565765,13.122389 -0.858386,-0.36788 -1.22579,-3.4345 -0.735281,-5.887 1.103645,-4.905029 1.595576,-6.743459 2.699208,-9.441221 0.245145,-0.4905 0.611217,-1.963455 1.101712,-3.312336 0.490507,-1.348881 0.981488,-2.819429 1.104104,-3.309928 0.613139,-1.839382 0.490997,-5.149335 -0.1222,-5.762452 -0.735727,-0.735763 -2.697286,-1.472932 -3.800905,-1.472932 -1.962018,0 -6.009618,2.575119 -8.95264,5.518145 -4.414532,4.291907 -4.781434,4.904548 -8.214949,11.771568 l -3.065652,6.131296 0.244387,-2.81895 c 0.12263,-1.471506 0.735281,-4.29191 1.348407,-6.131293 1.962018,-5.886024 3.312806,-9.564786 3.803314,-10.423168 0.367879,-0.490499 0.612666,-2.206785 0.735282,-3.800929 0.245132,-2.697763 0.121627,-2.944932 -0.981978,-3.803313 -1.962003,-1.594118 -6.130786,-1.103142 -8.705931,1.10412 -1.962004,1.716762 -0.368837,2.452024 2.696815,1.348403 0.735741,-0.245387 1.594613,-0.489545 1.717231,-0.244383 0.12263,0.245137 -0.245635,2.085095 -1.104121,4.169739 -0.858373,2.084644 -1.470062,4.046645 -1.592679,4.291907 -1.348879,4.537144 -6.009146,13.978837 -7.848533,15.450367 -0.490495,0.36786 -0.735756,0.36737 -1.226264,-0.491 -1.594113,-2.575149 -1.839375,-4.045699 -1.839375,-10.667486 0.122632,-5.395525 0.245635,-7.358479 1.10412,-10.792004 0.490495,-2.329881 0.8579,-4.537144 0.735255,-4.905024 -0.981003,-2.575143 -4.660711,-0.244385 -4.660711,2.821333 0,0.735763 -0.121197,0.858383 -0.979567,0.613146 -1.716774,-0.613146 -4.415996,-0.24564 -6.377987,0.73526 -4.905024,2.575144 -9.19694,11.771597 -9.19694,19.742274 0,4.414521 1.104122,6.010091 4.169773,6.377981 3.4335,0.36785 5.395518,-1.34939 8.583787,-7.848541 0.858385,-1.594138 1.594141,-2.943495 1.839388,-2.943495 0.245391,0 0.368824,-4.27e-4 0.368824,0.122185 0,0.122689 0.245649,1.350312 0.491011,2.699223 1.226234,6.621758 5.516716,9.563358 9.563355,6.497708 l 1.47293,-1.22626 -0.246638,1.22626 c -0.122631,0.61312 -4.58e-4,3.31187 0.122201,5.88698 0.490494,4.1693 0.614071,4.78195 1.595102,5.64031 l -0.735296,-0.12219 c 1.348893,1.22626 3.311386,1.34742 4.169772,0.36643 0.367848,-0.36787 1.593165,-3.43304 2.696784,-6.86657 1.962019,-5.76341 6.253433,-15.205574 7.479696,-16.554454 0.245132,-0.245388 0.857898,-1.103644 1.348392,-1.839381 1.226263,-1.839408 5.520086,-6.252978 6.868966,-6.988716 l 1.226264,-0.613119 -0.368839,1.592688 c -0.367878,1.594119 -0.981505,2.944455 -1.717245,4.538576 -0.122631,0.36788 -0.490493,1.34745 -0.613138,2.20583 -0.122632,0.858381 -0.490495,1.962001 -0.613125,2.452526 -0.122631,0.490501 -0.612163,1.472454 -0.857426,2.208215 -0.245132,0.735737 -0.612637,3.555168 -0.735253,6.375575 -0.122774,4.29191 0,5.39553 0.613111,6.74441 1.34888,2.94302 4.41357,3.68023 7.601837,2.08607 1.348881,-0.73576 2.084651,-1.34936 4.291901,-4.16974 0.858385,-1.10364 3.433028,-5.39552 4.41406,-7.357545 0.61311,-1.226267 1.103617,-2.084174 1.226233,-1.961535 0.122632,0.122697 0.367878,1.715315 0.61314,3.43208 0.735741,5.39553 3.067068,11.15988 5.151728,12.63141 3.18826,2.32988 7.11228,1.96248 9.81004,-0.73528 1.34887,-1.34889 3.43254,-5.14979 4.5362,-8.09281 0.36786,-0.85839 0.36835,-0.8603 1.10408,-0.12446 1.10365,1.10364 3.80094,1.34938 5.64031,0.49097 1.47153,-0.73573 3.29784,-3.69398 3.80094,-4.53616 0.14127,-0.23635 0.20373,-0.3943 0.36883,-0.61314 0.2746,-0.36375 0.98149,-1.349365 1.71725,-2.943487 0.73572,-1.594138 1.47006,-2.57514 1.59267,-2.45252 0.12279,0.122688 0.49004,1.471975 0.73531,2.943505 0.6131,3.065642 2.08461,6.007692 3.67876,6.988692 0.61311,0.36788 1.84033,0.73528 2.82132,0.73528 2.57516,0 4.53621,-2.32797 7.60183,-8.45926 3.6788,-7.357525 4.29192,-8.951671 4.29192,-10.423171 0,-1.103643 -0.12062,-1.350812 -1.1017,-1.350812 -0.85838,0 -1.22818,0.369312 -1.96395,2.086074 -0.4905,1.103643 -1.4696,3.432571 -2.32797,5.149333 -0.85839,1.716737 -1.84033,3.802334 -2.20822,4.660712 -0.85839,1.839409 -3.55709,5.640314 -4.0476,5.640314 -0.12263,0 -0.73528,-0.98198 -1.3484,-2.20821 -0.85838,-1.839391 -1.10363,-3.188272 -1.22627,-7.357555 -0.12264,-4.782407 0.12278,-8.582358 1.22627,-13.242145 0.98099,-4.537144 0.98145,-4.538574 -0.12221,-5.151693 -0.85838,-0.490524 -1.22576,-0.490524 -1.96152,0 -0.98099,0.735738 -1.83938,2.207739 -1.83938,3.556622 0,0.735737 -0.12364,0.85838 -0.98197,0.613119 -3.06566,-0.981001 -7.35706,0.490499 -9.9322,3.678761 -1.83939,2.207263 -4.16879,7.113266 -5.02717,10.792028 -0.36788,1.594145 -0.85936,3.310885 -0.98199,3.678759 -0.24513,0.367885 -0.36642,0.734817 -0.36642,0.857435 0,0.122687 -0.36982,0.858854 -0.73766,1.717242 -0.36787,0.858377 -1.22531,3.433527 -2.08369,5.518147 -0.85839,2.08464 -1.59416,3.92498 -1.83939,4.04761 -0.24539,0.12269 -0.36884,0.36789 -0.36884,0.61313 0,0.85837 -1.71675,2.20678 -2.45251,1.96152 -1.71674,-0.49051 -3.92256,-5.88697 -4.65834,-11.40512 -0.49049,-3.065651 -0.36835,-16.431368 0.1222,-20.355392 0.24538,-2.084644 0.73625,-5.519123 1.10412,-7.726385 0.36789,-2.084643 0.73478,-4.535714 0.85743,-5.271475 0.24512,-1.594121 0.85933,-1.962954 7.11323,-4.047598 6.98968,-2.452501 12.99879,-3.556622 18.2717,-3.556622 6.00867,0 8.46117,0.860288 11.64943,3.803314 1.7168,1.594145 3.18685,1.837475 4.04525,0.488594 0.981,-1.594144 -3.06423,-4.65836 -7.72401,-5.884595 -2.08462,-0.613145 -4.17118,-0.613622 -9.93457,-0.491002 -3.92404,0.122688 -7.96924,0.367404 -8.95025,0.735285 -0.98102,0.367881 -2.94348,0.858381 -4.16975,1.226264 -1.22627,0.367879 -3.67926,1.104094 -5.39601,1.717236 -1.71676,0.61312 -3.06517,1.104097 -3.18779,1.104097 -0.4905,0 0.36739,-4.783334 1.3484,-7.11324 0.36786,-0.858383 -0.85696,-1.71724 -2.20583,-1.71724 z m 23.42103,27.837463 c 0.49051,0 1.10223,0.245388 1.59271,0.613143 0.73575,0.613119 0.7372,0.735738 -0.36645,3.065644 -0.61311,1.34888 -1.1041,2.574164 -1.1041,2.696783 0,0.613144 -5.27242,11.036317 -6.25343,12.262575 v -0.122177 c -0.24538,0.245387 -0.61407,0.857897 -0.98198,1.348397 -0.6131,0.85838 -0.7343,0.85791 -0.97956,0.12219 -0.36788,-1.10363 0.1222,-7.356101 0.73529,-8.950244 0.36788,-0.613119 0.73479,-1.595575 0.85743,-2.086075 0.85836,-2.207263 2.20392,-4.326029 2.33036,-4.53619 0.36882,-0.613119 0.18593,-0.293989 0.36882,-0.613119 0.33241,-0.579797 2.81992,-3.800928 3.80091,-3.800927 z m -84.487161,0.06951 c 0.467546,-0.02007 0.931677,0.168109 1.468168,0.543693 0.735741,0.490499 0.736215,0.736214 -0.122201,2.943476 -0.490493,1.348883 -2.206275,5.150287 -3.923046,8.583813 -1.366666,1.861611 -2.604547,5.137592 -4.169759,7.357523 -0.981002,1.10365 -1.103145,1.22436 -1.348407,0.4886 -0.367876,-0.98101 0.122201,-6.743934 0.735283,-8.705935 0.858386,-2.697787 4.169742,-8.828096 5.396007,-10.054359 0.758746,-0.758745 1.362807,-1.130391 1.96394,-1.156811 z" />
  <path
     style="display:inline;fill:#00ff00;stroke-width:1.22625"
     d="m 234.85782,74.525097 c -1.44861,0.03188 -2.56509,2.118642 -5.05593,8.495168 -2.82041,7.357551 -6.49869,15.205095 -7.47969,16.063505 -0.85839,0.73574 -1.22626,-2.329401 -0.61314,-7.479692 0.49052,-4.291907 0.85934,-6.133195 2.20824,-10.54772 1.10361,-3.556143 0,-5.516262 -2.45254,-4.167357 -1.34887,0.73574 -2.45347,3.187787 -4.04759,8.705932 -0.981,3.801405 -6.25343,14.591977 -10.54533,22.194767 l -2.33036,4.16976 -0.12219,-2.82135 c -0.12264,-1.59415 0.12377,-3.67924 0.36883,-4.78289 0.73577,-2.82038 1.83795,-6.252 2.20583,-7.232992 0.73575,-1.839389 1.71772,-4.905985 2.20821,-7.113247 0.73574,-3.188265 -0.49144,-5.027168 -4.04758,-6.253432 -0.98103,-0.245387 -2.20583,-1.103641 -2.81898,-1.83938 -0.98102,-1.103643 -1.10363,-1.349357 -0.61311,-2.943502 0.73575,-2.207262 0.12162,-3.434478 -1.5951,-3.434478 -1.96202,0 -2.82039,0.981001 -3.06565,3.678764 -0.12262,1.348906 -4.3e-4,2.9435 0.1222,3.556644 0.36788,1.716763 2.32942,3.312311 3.80094,3.312311 3.92403,0 3.80185,1.594144 -0.12221,12.262582 -1.10362,3.06564 -1.34743,4.53619 -1.59268,8.8281 -0.24538,5.64076 0.12119,6.99011 2.20581,7.84852 l -0.36642,-0.24665 c 1.34887,0.61313 4.53713,0.12321 5.51814,-0.73528 1.22627,-1.22626 3.06517,-4.29093 6.25342,-10.66748 2.57514,-5.15028 2.94351,-5.640753 2.94351,-4.29188 0,4.16926 3.43254,6.37558 6.98871,4.53616 1.10363,-0.61311 4.41404,-4.90404 4.41404,-5.762415 0,-0.122697 0.49051,-1.472015 1.22626,-2.94351 1.71675,-3.678761 2.57514,-5.640309 3.06563,-6.866548 0.36789,-0.858382 0.49002,-0.369312 0.73529,2.205807 0.61311,6.253931 2.08464,10.178916 4.29188,11.405146 1.59413,0.85839 3.9245,0.12269 6.00915,-1.83937 0.981,-0.98101 1.83938,-1.96299 1.83938,-2.208226 0,-0.245139 0.49195,-0.979566 0.85981,-1.592688 0.36787,-0.613141 0.9791,-1.595097 1.10174,-2.208217 0.12263,-0.613144 0.61358,-1.960594 1.10409,-2.818975 0.49051,-0.858357 1.10317,-2.575119 1.34841,-3.678763 0.4905,-2.084644 0.98147,-2.57705 2.33036,-2.57705 0.49052,0 2.57658,-0.734785 4.5386,-1.470547 1.962,-0.735761 3.55423,-1.348404 3.55423,-1.348404 0,0 -0.85839,0.980046 -1.83939,2.083665 -2.82041,2.943025 -4.53621,5.028145 -6.98872,8.461671 -1.22626,1.594118 -2.45156,3.310882 -2.6968,3.678757 -1.10363,1.348886 -5.52009,8.705937 -7.48207,12.384727 -1.22627,2.4525 -1.96203,4.2914 -1.83938,5.02715 0.12262,1.10366 0.36978,1.22817 1.96391,1.35081 1.96202,0.12263 4.16734,-1.1041 4.16734,-2.33037 0,-0.36788 0.24565,-0.61311 0.49102,-0.61311 0.24539,0 0.49096,-0.24539 0.49096,-0.61315 0,-0.36788 0.24615,-0.61264 0.36884,-0.73526 0.36787,-0.12269 1.10314,-1.34888 2.57464,-4.2919 0.85839,-1.59415 3.06565,-3.68019 3.67879,-3.31234 0.24539,0.24514 0.49099,0.61361 0.49099,1.10412 0,1.22626 2.94253,6.868 4.41403,8.3395 0.73575,0.73577 1.83938,1.47007 2.4525,1.59269 1.8394,0.49051 4.78289,-0.12263 6.00915,-1.22626 2.32989,-2.08462 3.43206,-6.49771 1.59269,-6.49771 -0.98099,0 -1.47102,0.48907 -2.57463,2.20583 -1.34889,2.08462 -2.57515,2.82133 -3.6788,2.20822 -0.4905,-0.2454 -0.8574,-0.73624 -0.8574,-1.10413 0,-0.36785 -0.24615,-0.61264 -0.36887,-0.73526 -0.49048,-0.12268 -1.59363,-2.57609 -2.57464,-5.27389 -0.85838,-2.20723 -1.59557,-3.06561 -3.31232,-3.67876 l -1.10173,-0.36642 1.96151,-3.065648 c 1.8394,-2.943025 4.0462,-6.009621 5.02717,-7.113239 0.24514,-0.367883 1.34844,-1.594146 2.57468,-3.065646 1.22625,-1.471525 2.45394,-2.820405 2.6992,-3.065643 3.18827,-3.433524 3.67782,-6.009146 1.47055,-7.235408 -1.10364,-0.613118 -1.472,-0.489547 -3.55661,0.368835 -4.53717,1.962024 -6.37609,2.698263 -8.09281,3.55662 -1.96203,0.981025 -5.02815,2.205832 -5.39603,2.205832 -0.12264,0 -4.2e-4,-0.612642 0.1222,-1.348405 0.24512,-1.226237 0.24663,-1.348403 -0.97957,-1.348403 -1.96201,0 -3.55663,1.470546 -3.55663,3.309952 0,0.735738 0.12364,1.472931 0.36883,1.472931 0.73578,0 0.85742,1.347926 0.24438,2.696808 -0.36788,0.735763 -0.61311,1.472003 -0.61311,1.71724 0,0.735763 -3.43448,7.356096 -4.66075,8.950238 -1.71676,2.207266 -1.83937,1.840816 -3.06563,-5.884596 -0.49049,-3.310879 -0.61169,-5.886023 -0.36647,-10.423192 l 0.24439,-6.00912 -1.10409,-0.490978 c -0.39087,-0.183915 -0.74111,-0.285206 -1.07537,-0.27783 z"
     id="path3274" />
  <path
     style="display:inline;fill:#0000ff;stroke-width:1.22625"
     d="m 184.39927,48.186912 c -1.47222,-0.01004 -2.95598,0.274467 -4.13625,0.864629 -1.962,0.981 -6.37796,5.396477 -6.37796,6.500096 0,0.275923 -0.13653,0.481418 -0.30896,0.567629 -0.0575,0.02886 -0.12062,0.04541 -0.18216,0.04541 -0.24513,0 -0.48859,0.12319 -0.48859,0.490976 0,0.367882 -0.49144,1.471025 -0.98196,2.574668 -0.85838,1.962 -1.22721,3.064665 -2.82134,8.828073 -2.20728,7.72543 -1.8394,23.912959 0.61313,29.185889 0.24512,0.490503 0.73574,1.593648 1.22624,2.574648 0.85841,2.08465 4.53906,6.00867 6.25583,6.74441 l 0.1222,-0.12219 c 1.47152,0.61315 5.39505,0.61315 6.86656,0 2.45252,-1.10361 4.90455,-3.92403 6.86658,-7.97067 1.1036,-2.207267 2.20725,-4.905027 2.45249,-6.13129 1.47153,-6.499145 2.20822,-10.301027 2.20822,-12.140409 0,-1.83938 -0.12321,-2.085119 -1.1041,-2.330356 -2.45252,-0.613145 -2.69729,-0.244887 -4.41404,7.235382 -1.47151,6.376525 -2.57515,9.564787 -4.29193,12.875694 -1.10361,2.115319 -2.82753,4.368069 -3.98291,5.362489 -0.28883,0.24865 -0.54335,0.41917 -0.74245,0.48859 -0.0663,0.0226 -0.12593,0.0359 -0.17965,0.0359 -0.85838,0 -3.18875,-3.06707 -4.78288,-6.377983 -2.08464,-4.414529 -2.94208,-10.055793 -2.6968,-17.658581 0.12262,-3.310882 0.49001,-7.355618 0.73527,-9.072382 1.4715,-9.31955 6.13177,-18.641031 9.68788,-19.74465 1.47153,-0.4905 3.31092,1.718669 3.67879,4.416432 0.49051,3.556145 0.6117,3.678788 2.20584,3.678788 1.34885,0 1.47102,-0.124453 1.96152,-1.963932 0.61312,-2.820407 -0.36789,-5.885549 -2.45252,-7.479693 -1.17261,-0.965669 -3.04334,-1.465076 -4.93615,-1.477747 z"
     id="path3270" />
  <path
     style="display:inline;fill:#ff0000;stroke-width:1.22625"
     d="m 14.294441,45.928414 c -2.4527,-0.02659 -5.117694,0.938371 -6.8114746,2.632124 -1.3488813,1.348881 -1.4729304,1.718695 -1.4729304,3.803313 0,1.226264 0.2456399,2.697287 0.4909773,3.187786 0.735738,1.348883 2.5765737,3.922595 3.3123117,4.658359 0.367882,0.367855 1.838453,1.961999 3.309953,3.678762 1.471499,1.716762 2.698716,3.189693 2.821334,3.312336 0.4905,0.490499 2.205833,3.064665 2.205833,3.309928 0,0.122688 0.367404,0.858858 0.735284,1.71724 2.329882,3.556143 4.416433,11.037265 4.416433,16.310172 0,3.065644 -0.858858,7.723977 -1.717239,9.563356 -0.122689,0.36788 -0.613596,1.34936 -1.104121,2.33039 -1.716738,3.4335 -5.02812,6.37557 -7.235382,6.37557 -0.858381,0 -2.819428,-1.83748 -3.923073,-3.55424 -1.4714986,-2.20726 -2.3313103,-6.009116 -2.0860734,-9.07479 0.4905257,-5.76338 3.5571224,-12.754004 6.5001224,-14.470766 1.594144,-0.981025 1.84036,-2.575622 0.368835,-2.943504 -3.924024,-1.103641 -8.095195,2.208694 -10.5477191,8.217363 -1.4715006,3.433527 -1.4705468,3.800428 -1.4705468,9.441216 0,5.640791 0,6.008171 1.2262621,8.092821 2.207263,3.92401 4.4145258,5.88747 7.9706688,6.9911 v -0.12219 c 3.310881,0.981 6.008167,0.61169 9.932192,-1.47296 2.697762,-1.47149 3.434478,-2.08462 5.273865,-4.90503 1.59414,-2.45249 2.20583,-3.6778 3.432093,-6.988692 0.981004,-2.452522 0.982898,-11.894214 0.124496,-14.83724 -2.820391,-9.19693 -4.6617,-12.141359 -13.000224,-21.093053 -3.065646,-3.310882 -5.027194,-6.131288 -5.027194,-7.357527 0,-2.575143 2.452049,-4.292382 5.027194,-3.55662 1.348854,0.4905 2.821334,2.32988 2.821334,3.678762 0,0.735763 1.59462,1.349359 2.943501,1.104097 0.613119,-0.122689 0.856952,-0.613119 0.979569,-1.839383 0.122702,-1.34888 -0.12068,-1.837925 -1.101711,-2.81895 -1.348881,-1.348882 -3.678787,-2.454432 -6.744431,-3.19017 -0.528814,-0.114914 -1.084173,-0.173628 -1.650172,-0.179649 z"
     id="path3139" />
</svg>
