<svg xmlns="http://www.w3.org/2000/svg" data-name="Capa 1" viewBox="0 0 270 160">
  <path fill="#ff0" d="M105.5 51.6c-1.9 0-4 3.6-5.2 8.1-.6 2.8-.7 3-3.8 4.2-1 .4-4.4 1.3-7.6 2.2-5.5 1.5-8-.6-5.3-4.2 1.4-1.7 1.4-1.7.4-2-1.5-.5-3.7.6-4.5 2.4-1.3 2.2-1.1 3.6.2 4.9 1.5 1.5 3.3 1.8 8 1.5 3.4-.3 4.8-.6 8.6-2 1-.4 1.7-.5 2-.4.2.2 0 1.4-.3 2.6l-1 4-1.1 9c-.4 4-.9 7.5-1.1 7.9-.3.3-1.1 2.2-2 4.1-3.3 7.1-8 13.8-9.5 13.2-.9-.4-1.3-3.5-.8-6 1.1-4.8 1.6-6.7 2.7-9.4.3-.5.6-2 1.1-3.3l1.1-3.3c.6-1.8.5-5.1 0-5.8a7 7 0 0 0-3.9-1.4c-2 0-6 2.5-9 5.5a30.4 30.4 0 0 0-8.2 11.8l-3 6 .2-2.7c.1-1.5.8-4.3 1.4-6.2 2-5.8 3.3-9.5 3.8-10.4.3-.5.6-2.2.7-3.8.3-2.7.1-3-1-3.8-2-1.6-6.1-1-8.7 1.1-2 1.7-.3 2.5 2.7 1.4.8-.3 1.6-.5 1.7-.3.2.3-.2 2.1-1 4.2-1 2-1.5 4-1.7 4.3-1.3 4.5-6 14-7.8 15.4-.5.4-.7.4-1.2-.5-1.6-2.5-1.9-4-1.9-10.6.1-5.4.3-7.4 1.1-10.8.5-2.3.9-4.6.8-5-1-2.5-4.7-.2-4.7 2.9 0 .7-.1.9-1 .6a9.1 9.1 0 0 0-6.4.7c-4.9 2.6-9.2 11.8-9.2 19.8 0 4.4 1.2 6 4.2 6.4 3.5.3 5.4-1.4 8.6-7.9.9-1.6 1.6-3 1.8-3 .3 0 .4 0 .4.2l.5 2.7c1.2 6.6 5.5 9.6 9.6 6.5l1.4-1.2-.2 1.2c-.1.6 0 3.3.1 5.9.5 4.1.6 4.8 1.6 5.6l-.7-.1c1.3 1.2 3.3 1.3 4.1.4.4-.4 1.6-3.5 2.7-6.9a93 93 0 0 1 8.9-18.4c1.2-1.8 5.5-6.2 6.8-7l1.3-.6-.4 1.6c-.4 1.6-1 3-1.7 4.5-.1.4-.5 1.4-.6 2.2l-.6 2.5-1 2.2a36 36 0 0 0 0 13.1c1.3 3 4.4 3.7 7.6 2.1 1.3-.7 2-1.3 4.3-4.2a72.6 72.6 0 0 0 5.6-9.3c.1.1.4 1.7.6 3.5.8 5.3 3 11.1 5.2 12.6 3.2 2.3 7 2 9.8-.8 1.3-1.3 3.4-5.1 4.5-8 .4-.9.4-1 1.1-.2 1.1 1.1 3.8 1.4 5.7.5 1.4-.7 3.3-3.7 3.8-4.5l.3-.6c.3-.4 1-1.4 1.7-3 .8-1.6 1.5-2.5 1.6-2.4.2.1.5 1.4.8 3 .6 3 2 6 3.7 7 .6.3 1.8.6 2.8.6 2.6 0 4.5-2.3 7.6-8.4 3.7-7.4 4.3-9 4.3-10.4 0-1.1-.2-1.4-1.1-1.4-.9 0-1.3.4-2 2l-2.3 5.2c-.9 1.8-1.9 3.8-2.2 4.7-.9 1.8-3.6 5.6-4 5.6-.2 0-.8-1-1.4-2.2-.9-1.8-1.1-3.2-1.3-7.3a48 48 0 0 1 1.3-13.3c1-4.5 1-4.5-.2-5.1-.8-.5-1.2-.5-2 0-.9.7-1.8 2.2-1.8 3.5 0 .8 0 .9-1 .7-3-1-7.3.4-9.9 3.6a31.5 31.5 0 0 0-5 10.8 57.3 57.3 0 0 1-1.3 4.6l-.8 1.7-2 5.5c-1 2-1.7 4-1.9 4-.2.2-.4.4-.4.7 0 .8-1.7 2.2-2.4 2-1.7-.6-4-6-4.7-11.5-.5-3-.4-16.4.1-20.3l1.1-7.8.9-5.2c.2-1.6.9-2 7.1-4 7-2.5 13-3.6 18.3-3.6 6 0 8.4.8 11.6 3.8 1.8 1.6 3.2 1.8 4 .4 1-1.5-3-4.6-7.6-5.8-2.1-.6-4.2-.6-10-.5-3.9.1-8 .3-9 .7a125.2 125.2 0 0 0-9.6 3l-3 1c-.6 0 .3-4.7 1.3-7 .3-1-.9-1.8-2.2-1.8zm23.4 27.9c.5 0 1 .2 1.6.6.7.6.7.7-.4 3l-1.1 2.7c0 .7-5.3 11-6.2 12.3V98c-.3.2-.7.8-1 1.3-.6.9-.8.9-1 .2-.4-1.2.1-7.4.7-9 .4-.6.8-1.6.9-2 .8-2.3 2.2-4.4 2.3-4.6l.4-.6c.3-.6 2.8-3.8 3.8-3.8zm-84.5 0c.5 0 1 .2 1.5.6.7.5.7.7-.2 3a115 115 0 0 1-3.9 8.5c-1.3 1.9-2.6 5.1-4.2 7.4-1 1-1 1.2-1.3.5-.4-1 .1-6.8.7-8.8.9-2.7 4.2-8.8 5.4-10 .8-.8 1.4-1.1 2-1.2z"/>
  <path fill="#0f0" d="M234.9 74.5c-1.5 0-2.6 2.1-5.1 8.5a89.8 89.8 0 0 1-7.5 16c-.8.8-1.2-2.2-.6-7.4.5-4.3.9-6.1 2.2-10.5 1.1-3.6 0-5.6-2.4-4.2-1.4.7-2.5 3.2-4 8.7-1 3.8-6.3 14.6-10.6 22.2l-2.4 4.2V109a19 19 0 0 1 .3-4.7c.7-2.9 1.8-6.3 2.2-7.3.7-1.8 1.7-4.9 2.2-7 .7-3.3-.5-5.1-4-6.3-1-.3-2.3-1.1-2.9-1.9-1-1-1-1.3-.6-3 .8-2.1.1-3.4-1.6-3.4-2 0-2.8 1-3 3.7-.2 1.4 0 3 0 3.6.5 1.7 2.4 3.3 3.9 3.3 4 0 3.8 1.6-.1 12.2-1.1 3.1-1.4 4.6-1.6 8.9-.3 5.6 0 7 2.2 7.8l-.4-.2c1.4.6 4.5.1 5.5-.8a50 50 0 0 0 6.3-10.6c2.6-5.2 3-5.7 3-4.3 0 4.2 3.4 6.4 7 4.5 1-.6 4.3-4.9 4.3-5.7a145.5 145.5 0 0 0 4.3-9.8c.4-1 .5-.4.8 2.2.6 6.2 2 10.1 4.2 11.4 1.6.8 4 0 6-1.9 1-1 1.9-2 1.9-2.2l.9-1.6c.3-.6 1-1.6 1-2.2.2-.6.7-2 1.2-2.8.5-.9 1-2.6 1.3-3.7.5-2 1-2.6 2.3-2.6.5 0 2.6-.7 4.6-1.4l3.5-1.4-1.8 2.1c-2.8 3-4.5 5-7 8.5a97.8 97.8 0 0 0-10.2 16c-1.2 2.5-2 4.3-1.8 5 .1 1.2.4 1.3 2 1.4 2 .1 4.1-1.1 4.1-2.3 0-.4.3-.6.5-.6.3 0 .5-.3.5-.7 0-.3.2-.6.4-.7.3-.1 1-1.3 2.5-4.3.9-1.6 3.1-3.7 3.7-3.3.3.3.5.6.5 1.1 0 1.2 3 6.9 4.4 8.4.8.7 1.9 1.4 2.5 1.5 1.8.5 4.8 0 6-1.2 2.3-2 3.4-6.5 1.6-6.5-1 0-1.5.5-2.6 2.2-1.3 2.1-2.6 2.8-3.7 2.2-.5-.2-.8-.7-.8-1 0-.4-.3-.7-.4-.8-.5-.1-1.6-2.6-2.6-5.3-.8-2.2-1.6-3-3.3-3.7l-1-.3 1.9-3c1.8-3 4-6.1 5-7.2a68.9 68.9 0 0 1 5.3-6.1c3.2-3.5 3.7-6 1.4-7.3-1-.6-1.4-.5-3.5.4-4.5 2-6.4 2.7-8.1 3.6-2 1-5 2.2-5.4 2.2l.1-1.4c.3-1.2.3-1.3-1-1.3-2 0-3.5 1.4-3.5 3.3 0 .7.1 1.4.4 1.4.7 0 .8 1.4.2 2.7a48.8 48.8 0 0 1-5.3 10.7c-1.7 2.2-1.8 1.9-3-5.9-.5-3.3-.7-5.9-.4-10.4l.2-6-1-.5-1.1-.3z"/>
  <path fill="#00f" d="M184.4 48.2c-1.5 0-3 .3-4.1.9-2 1-6.4 5.3-6.4 6.5 0 .2-.2.4-.3.5h-.2c-.3 0-.5.2-.5.6 0 .3-.5 1.4-1 2.5a61 61 0 0 0-2.2 38l1.2 2.6c.9 2.1 4.6 6 6.3 6.8l.1-.2c1.5.7 5.4.7 6.9 0 2.4-1 4.9-3.9 6.9-8a33 33 0 0 0 2.4-6 75.6 75.6 0 0 0 2.2-12.2c0-1.8-.1-2-1-2.3-2.5-.6-2.8-.3-4.5 7.2a50 50 0 0 1-4.3 12.9 20.9 20.9 0 0 1-4 5.3c-.3.3-.5.5-.7.5h-.2c-.9 0-3.2-3-4.8-6.3-2-4.4-3-10-2.7-17.7.1-3.3.5-7.3.8-9 1.4-9.4 6-18.7 9.6-19.8 1.5-.5 3.4 1.7 3.7 4.4.5 3.6.6 3.7 2.2 3.7 1.4 0 1.5-.1 2-2 .6-2.8-.4-5.8-2.5-7.4a8 8 0 0 0-4.9-1.5z"/>
  <path fill="red" d="M14.3 46c-2.5-.1-5.1.9-6.8 2.6C6 49.9 6 50.3 6 52.4c0 1.2.3 2.7.5 3.2.7 1.3 2.6 3.9 3.3 4.6l3.3 3.7 2.8 3.3c.5.5 2.3 3 2.3 3.3l.7 1.7c2.3 3.6 4.4 11 4.4 16.3 0 3.1-.9 7.8-1.7 9.6l-1.1 2.3c-1.7 3.5-5 6.4-7.3 6.4-.8 0-2.8-1.8-3.9-3.5-1.4-2.3-2.3-6-2-9.1.4-5.8 3.5-12.8 6.4-14.5 1.6-1 1.9-2.6.4-3-4-1-8 2.3-10.5 8.3C2 88.4 2 88.8 2 94.4c0 5.7 0 6 1.2 8.1 2.2 4 4.4 5.9 8 7v-.1c3.3 1 6 .6 10-1.5 2.6-1.5 3.4-2 5.2-4.9 1.6-2.4 2.2-3.7 3.4-7 1-2.4 1-11.9.1-14.8A43 43 0 0 0 17 60c-3-3.3-5-6.1-5-7.4 0-2.5 2.5-4.3 5-3.5 1.4.5 2.9 2.3 2.9 3.7 0 .7 1.6 1.3 3 1 .5 0 .8-.6.9-1.8.1-1.3-.1-1.8-1.1-2.8a14.4 14.4 0 0 0-8.4-3.4z"/>
</svg>
